<?xml version="1.0" standalone="no"?>
<!DOCTYPE svg PUBLIC "-//W3C//DTD SVG 1.1//EN" "http://www.w3.org/Graphics/SVG/1.1/DTD/svg11.dtd" >
<svg xmlns="http://www.w3.org/2000/svg">
<metadata></metadata>
<defs>
<font id="lexisaebomrregular" horiz-adv-x="921" >
<font-face units-per-em="2048" ascent="1638" descent="-410" />
<missing-glyph horiz-adv-x="512" />
<glyph horiz-adv-x="960" />
<glyph horiz-adv-x="960" />
<glyph unicode="&#xd;" horiz-adv-x="960" />
<glyph unicode=" "  horiz-adv-x="512" />
<glyph unicode="&#x09;" horiz-adv-x="512" />
<glyph unicode="&#xa0;" horiz-adv-x="512" />
<glyph unicode="!" horiz-adv-x="714" d="M233 113q0 53 36 89.5t89 36.5t89.5 -36.5t36.5 -89.5t-36 -89.5t-90 -36.5q-53 0 -89 36.5t-36 89.5zM233 1316q0 62 32 100.5t93 38.5q62 0 94 -38.5t32 -100.5q0 -41 -5 -93t-20 -107t-26 -143t-18.5 -184t-10.5 -188.5t-3 -156.5h-85q0 66 -4.5 158.5t-12 188.5 t-18 183.5t-25.5 143.5q-15 55 -19 107.5t-4 90.5z" />
<glyph unicode="&#x22;" d="M252 1350q0 15 1 36.5t8.5 40.5t23.5 33t46 14q28 0 42.5 -14t22 -33t8.5 -40.5t1 -36.5q0 -43 -2 -78t-6 -79.5t-9.5 -106.5t-14.5 -154q-2 -17 -8.5 -38t-33.5 -21q-30 0 -37.5 18t-7.5 48q-2 53 -7.5 112.5t-12 116.5t-10.5 105t-4 77zM514 1350q0 15 1 36.5t8.5 40.5 t22.5 33t45 14t46 -14t23.5 -33t8.5 -40.5t1 -36.5q0 -30 -3.5 -63t-7.5 -79.5t-11.5 -112.5t-13.5 -158q0 -17 -7.5 -40.5t-35.5 -23.5q-26 0 -33.5 21t-9.5 45q-11 109 -17 179t-10.5 116t-5.5 72.5t-1 43.5z" />
<glyph unicode="#" horiz-adv-x="1026" d="M51 474v100h231l40 281h-222v101h233l60 473h102l-58 -473h216l57 473h103l-58 -473h218v-101h-231l-40 -281h222v-100h-233l-60 -474h-100l56 474h-216l-57 -474h-101l56 474h-218zM384 574h222l34 281h-215z" />
<glyph unicode="$" horiz-adv-x="1026" d="M90 -13v548h76q0 -175 54.5 -283.5t146.5 -159.5v552q-60 19 -107 49t-80 79t-50 118.5t-17 169.5q0 73 19 137t53.5 115t80 87.5t101.5 55.5v143h79l4 -126q11 2 32 2q43 0 75 -11v135h77v-162q13 -6 31 -20t39 -27t41.5 -23.5t33.5 -10.5q36 0 45.5 25.5t9.5 46.5h79 v-461h-77q-6 64 -20 124t-37.5 112t-58.5 92.5t-86 66.5v-506q75 -21 131 -53t94.5 -81t58 -117.5t19.5 -159.5q0 -226 -78 -336t-225 -134v-204h-77v198q-73 0 -111 15v-213h-79v243q-36 21 -74.5 39t-79.5 18q-32 0 -39.5 -27.5t-7.5 -55.5h-76zM192 1126q0 -85 39.5 -130 t135.5 -77v448q-41 -21 -73 -53t-54 -66t-35 -67.5t-13 -54.5zM446 60q47 -9 111 -13v555q-36 4 -62 10.5t-49 10.5v-563zM446 898q23 -4 49 -11.5t62 -13.5v514q-36 9 -73 8h-18t-20 -2v-495zM634 53q107 17 162 92t55 177q0 115 -54.5 176t-162.5 91v-536z" />
<glyph unicode="%" horiz-adv-x="1638" d="M154 1082q0 77 17 145t50 119t82 80t115 29t117.5 -29t84.5 -80t50 -119.5t17 -144.5q0 -77 -17 -145.5t-50 -119.5t-84.5 -80t-117.5 -29t-115 29t-82 80t-50 119.5t-17 145.5zM303 1065q0 -45 2 -94t13 -91t34 -68.5t66 -26.5t66.5 28t35 70.5t13.5 91.5t2 94v25 q0 43 -2 93t-13.5 92t-35 69.5t-66.5 27.5t-66 -26.5t-34 -68.5t-13 -91t-2 -91v-34zM405 -45l726 1519h104l-725 -1519h-105zM951 348q0 77 17.5 145t50.5 119t83 80t116 29t116.5 -29t83.5 -80t50 -119t17 -145t-17 -145.5t-50 -119.5t-83.5 -80t-116.5 -29t-116 29 t-83 80t-50.5 119.5t-17.5 145.5zM1103 331q0 -43 2 -92t13 -90.5t34 -68.5t66 -27t66.5 28t35 69.5t13.5 91.5t2 93v26q0 45 -2 93.5t-13.5 91.5t-35 70.5t-66.5 27.5t-66 -26.5t-34 -68t-13 -90.5t-2 -94v-34z" />
<glyph unicode="&#x26;" horiz-adv-x="1433" d="M100 331q0 87 34.5 153t88.5 116.5t120.5 90t132.5 73.5q-32 62 -62 134.5t-30 142.5q0 90 29 148.5t74.5 93.5t103.5 49t115 14q49 0 104.5 -11.5t103.5 -40.5t80 -75t32 -116q0 -51 -33 -96t-84 -84.5t-110 -71.5t-110 -57l292 -468q38 45 68 101.5t51.5 115.5 t32 114.5t10.5 97.5h-162v77h414v-77h-164q0 -75 -17 -147.5t-44 -138.5t-61 -124.5t-72 -105.5l96 -162h260v-77h-424l-64 94q-188 -132 -414 -132q-77 0 -148.5 22t-125 68t-85.5 115.5t-32 163.5zM277 467q0 -68 24.5 -138.5t66.5 -128t97.5 -95t119.5 -37.5 q68 0 140.5 31t127.5 76l-332 518q-102 -49 -173 -99t-71 -127zM542 1103q0 -36 8.5 -63t22.5 -52.5t34.5 -53.5t43.5 -64q90 36 144 93t54 125q0 90 -32 134.5t-119 44.5q-83 0 -119.5 -51t-36.5 -113z" />
<glyph unicode="'" horiz-adv-x="512" d="M179 1350q0 15 1 36.5t8.5 40.5t22.5 33t45 14q28 0 44 -14t23.5 -33t8.5 -40.5t1 -36.5l-32 -420q-2 -17 -8.5 -37t-36.5 -20t-36.5 18t-8.5 35z" />
<glyph unicode="(" horiz-adv-x="795" d="M166 506q0 294 107 547t303 466l83 -56q-181 -209 -274 -442.5t-93 -514.5q0 -279 93 -515t274 -443l-83 -56q-196 215 -303 468t-107 546z" />
<glyph unicode=")" horiz-adv-x="795" d="M139 -452q181 207 272.5 441.5t91.5 516.5q0 284 -91.5 517.5t-272.5 439.5l83 54q196 -213 301.5 -466t105.5 -545q0 -294 -105.5 -547t-301.5 -469z" />
<glyph unicode="*" d="M105 604q0 34 21 53t51 32q11 4 37.5 11.5t50.5 12.5q60 21 90.5 30.5t47.5 26.5q-30 23 -61 31t-63 20q-26 6 -51 14t-49 20q-26 13 -49 33.5t-23 50.5q0 92 98 91q36 0 57.5 -19t36.5 -38q28 -38 57.5 -71.5t59.5 -58.5q0 49 -7.5 88.5t-22.5 88.5q-13 47 -13 83 q0 43 21.5 68.5t66.5 25.5q49 0 69 -25.5t20 -68.5q0 -38 -12 -79q-15 -49 -22.5 -90.5t-7.5 -90.5q26 23 54.5 56t51.5 63q13 19 40 43.5t63 24.5q100 0 100 -91q0 -30 -23.5 -50.5t-48.5 -33.5q-45 -21 -105 -34q-34 -11 -62 -18t-57 -29q36 -23 70 -38t64 -23 q23 -4 53 -12t39 -12q30 -13 51 -32t21 -53q0 -43 -27.5 -65.5t-72.5 -22.5q-28 0 -60 24.5t-42 44.5q-11 17 -44 53t-65 66q0 -49 7.5 -91.5t22.5 -91.5q13 -43 12 -79q0 -43 -20 -68.5t-69 -25.5q-45 0 -66.5 25.5t-21.5 68.5q0 34 13 83q11 38 19.5 86t10.5 93 q-32 -28 -65 -64t-44 -55q-13 -21 -43.5 -45t-58.5 -24q-45 0 -72.5 22.5t-27.5 65.5z" />
<glyph unicode="+" horiz-adv-x="1228" d="M122 642v88h448v448h89v-448h448v-88h-448v-450h-89v450h-448z" />
<glyph unicode="," horiz-adv-x="512" d="M149 15v136h145q28 0 48.5 -23t20.5 -55v-124q0 -100 -43 -158t-171 -58v58q73 0 98.5 33t27.5 114h-57q-28 0 -48.5 22.5t-20.5 54.5z" />
<glyph unicode="-" horiz-adv-x="1024" d="M173 642v88h702v-88h-702z" />
<glyph unicode="." horiz-adv-x="512" d="M156 17v68q0 30 23.5 48t53.5 18h49q30 0 52 -19t22 -49v-68q0 -32 -23.5 -49t-53.5 -17h-49q-30 0 -52 19t-22 49z" />
<glyph unicode="/" horiz-adv-x="716" d="M64 -32l482 1506h107l-482 -1506h-107z" />
<glyph unicode="0" horiz-adv-x="1024" d="M109 715q0 143 23.5 277t73.5 236.5t125.5 164.5t180.5 62q102 0 179 -62t127 -164.5t74.5 -236.5t24.5 -277q0 -145 -24.5 -278.5t-74.5 -236t-127 -164.5t-179 -62q-105 0 -180.5 62t-125.5 164.5t-73.5 236t-23.5 278.5zM288 606q0 -83 5.5 -180t27.5 -180.5t67 -139 t124 -55.5t125 56.5t68 140t27.5 181.5t5.5 181v209q0 83 -5.5 181.5t-27.5 181.5t-68 139.5t-125 56.5t-124 -55.5t-67 -138.5t-27.5 -180t-5.5 -181v-217z" />
<glyph unicode="1" horiz-adv-x="1024" d="M218 1035v76q83 68 172.5 148.5t185.5 169.5h73v-1352h200v-77h-582v77h202v1077q0 11 -3 18.5t-18 7.5t-41.5 -16t-58.5 -38.5t-66.5 -47t-63.5 -43.5z" />
<glyph unicode="2" horiz-adv-x="1024" d="M75 0q36 119 95.5 210t129 166.5t139 144t126 145t92.5 168.5t36 213q0 73 -12.5 134t-41.5 104.5t-76 68t-115 24.5q-45 0 -89.5 -21.5t-80 -56.5t-56.5 -80t-21 -91l-77 17q0 62 25.5 117t71.5 98t110 68.5t143 25.5q87 0 160.5 -19t126 -68.5t82.5 -131.5t30 -210 q0 -92 -30 -164.5t-81.5 -137.5t-115.5 -124.5t-134 -122.5t-138.5 -135.5t-126.5 -162.5h538l49 248h77l-49 -427h-787z" />
<glyph unicode="3" horiz-adv-x="1024" d="M79 247q0 19 5.5 44t19 46t35 35t53.5 14q90 0 90 -87q0 -90 -90 -90q-13 0 -23.5 -1t-10.5 -12q0 -38 23.5 -66t58.5 -46t75.5 -25.5t77.5 -7.5q90 0 150.5 24.5t96.5 71.5t51 114.5t15 154.5q0 53 -9.5 114t-39.5 113t-85.5 87.5t-146.5 35.5h-203v77h132 q75 0 131.5 7.5t95 36t58.5 87.5t20 159q0 111 -46 178t-165 67q-45 0 -85.5 -21.5t-71.5 -53.5t-49 -68t-18 -66l-77 19q0 41 21.5 88t62 87.5t100 66t138.5 25.5q68 0 134.5 -20.5t118.5 -60t84 -100t32 -141.5q0 -77 -21 -131.5t-54 -93t-73.5 -63t-79.5 -39.5 q47 -13 96 -40.5t88.5 -74.5t65 -115t25.5 -162q0 -109 -43.5 -191t-113 -137.5t-152.5 -83.5t-160 -28q-66 0 -127 15t-108 47t-74.5 84.5t-27.5 126.5z" />
<glyph unicode="4" horiz-adv-x="1024" d="M36 489l632 983h94l-553 -855h365v537h179v-537h175v-128h-175v-412h175v-77h-529v77h175v412h-538z" />
<glyph unicode="5" horiz-adv-x="1024" d="M100 247q0 19 5.5 44t19.5 46t35 35t53 14q90 0 90 -87q0 -90 -90 -90q-13 0 -23.5 -1t-10.5 -12q0 -79 69.5 -112t165.5 -33t159 31t99 83.5t50 121.5t14 146t-18 146.5t-54.5 120.5t-93 81t-135.5 30q-81 0 -125.5 -28t-81.5 -58h-47v704h514q41 0 41 56h77 q0 -66 -18 -111t-49 -72.5t-69.5 -39.5t-77.5 -12h-260q-43 0 -62 -9.5t-19 -35.5v-375q26 17 47 27.5t44.5 17t51.5 9.5t64 3q85 0 167.5 -29.5t144 -86t100 -139t38.5 -188.5q0 -115 -41.5 -204t-111 -147.5t-158 -88.5t-182.5 -30q-64 0 -122.5 15t-102 47t-70.5 84.5 t-27 126.5z" />
<glyph unicode="6" horiz-adv-x="1024" d="M105 557q0 186 56.5 343.5t154.5 278t230 196.5t286 99l15 -77q-134 -23 -231.5 -71t-164.5 -124t-106.5 -181.5t-54.5 -243.5q49 70 114 109.5t155 39.5q73 0 138 -31t114 -89.5t78.5 -145t29.5 -195.5q0 -100 -29.5 -188.5t-83 -156t-129 -107t-165.5 -39.5 q-109 0 -185.5 47t-127 127t-72.5 185.5t-22 223.5zM284 557q0 -96 4 -187t26.5 -161t68.5 -114t129 -44q79 0 125 41.5t68 104.5t28.5 136.5t6.5 137.5q0 68 -7.5 135.5t-29.5 122t-64 87.5t-110 33q-55 0 -100 -29t-77 -72.5t-50 -94.5t-18 -96z" />
<glyph unicode="7" horiz-adv-x="1024" d="M85 1047l47 382h834l-595 -1457h-121l520 1278h-559l-49 -203h-77z" />
<glyph unicode="8" horiz-adv-x="1024" d="M96 367q0 79 26.5 141t70.5 110t100.5 84t116.5 66q-47 17 -92 42.5t-79 66t-55.5 97t-21.5 133.5q0 83 31 148.5t80 109t112 67t127 23.5t127 -23.5t112 -67t80 -109t31 -148.5q0 -77 -21.5 -133.5t-56.5 -96t-80 -66t-92 -45.5q60 -30 116.5 -66.5t101.5 -85.5 t71.5 -109.5t26.5 -137.5q0 -107 -38.5 -181.5t-98 -121.5t-134.5 -68.5t-145 -21.5t-145 21.5t-134.5 68.5t-98 121.5t-38.5 181.5zM275 363q0 -62 12 -117.5t38.5 -99.5t72.5 -69.5t114 -25.5t114 25.5t72.5 69.5t38.5 99.5t12 117.5q0 66 -17 131t-49 117t-76 85.5 t-95 33.5t-95 -33.5t-76 -85.5t-49 -117t-17 -131zM322 1107q0 -62 13 -116t37.5 -95t59.5 -65.5t80 -24.5t80 24.5t59.5 65.5t37.5 95t13 116q0 53 -4.5 102.5t-23.5 86.5t-57.5 59.5t-104.5 22.5q-68 0 -105.5 -22.5t-56.5 -59.5t-23.5 -86.5t-4.5 -102.5z" />
<glyph unicode="9" horiz-adv-x="1024" d="M105 964q0 98 29.5 188t83 157t128 106.5t166.5 39.5q109 0 185.5 -47t127 -127t72.5 -185.5t22 -222.5q0 -183 -54 -341.5t-150 -279t-229.5 -198t-291.5 -99.5l-17 77q122 21 217 63t165 113t114 178t61 258q-45 -68 -111 -104.5t-156 -36.5q-75 0 -140 31t-115 90 t-78.5 145t-28.5 195zM284 958q0 -68 7.5 -135.5t29.5 -122t63 -87.5t109 -33q53 0 99 25.5t79 66.5t51 93t18 108q0 96 -4 186.5t-26.5 161t-68.5 114t-129 43.5q-77 0 -123 -41.5t-69 -104.5t-29.5 -136.5t-6.5 -137.5z" />
<glyph unicode=":" d="M361 311v71q0 30 23 47t53 17h49q30 0 52.5 -18t22.5 -48v-71q0 -30 -23.5 -47t-53.5 -17h-49q-30 0 -52 19.5t-22 46.5zM361 1015v71q0 30 23 47t53 17h49q30 0 52.5 -18t22.5 -48v-69q0 -32 -23.5 -49t-53.5 -17h-49q-30 0 -52 19.5t-22 46.5z" />
<glyph unicode=";" d="M354 43v55q73 0 98.5 33t27.5 114h-58q-28 0 -48 23.5t-20 53.5v137h145q28 0 48 -23.5t20 -53.5v-124q0 -102 -42.5 -158.5t-170.5 -56.5zM361 1026v49q0 32 20 53.5t48 21.5h64q28 0 48 -22.5t20 -54.5v-49q0 -36 -21.5 -55.5t-48.5 -19.5h-62q-30 0 -49 23.5t-19 53.5 z" />
<glyph unicode="&#x3c;" horiz-adv-x="1105" d="M81 636v74l943 485v-90l-836 -433l836 -431v-90z" />
<glyph unicode="=" horiz-adv-x="1105" d="M81 439v90h943v-90h-943zM81 817v88h943v-88h-943z" />
<glyph unicode="&#x3e;" horiz-adv-x="1105" d="M81 151v90l836 431l-836 433v90l943 -485v-74z" />
<glyph unicode="?" d="M183 1220q0 68 21.5 117.5t57 80.5t82 44.5t95.5 13.5q147 0 223 -89.5t76 -266.5q0 -68 -8.5 -117t-25.5 -87.5t-40.5 -68.5t-53.5 -60q-64 -64 -108.5 -111t-72.5 -87.5t-41 -77.5t-13 -82q0 -81 13 -128l-79 -9q-17 60 -24.5 130.5t-7.5 130.5q0 68 18.5 120t48 95 t67 78t75.5 67q73 62 123 123t50 148q0 96 -55.5 155.5t-164.5 59.5q-26 0 -56.5 -6t-57 -20t-45 -33t-18.5 -45q0 -21 16 -33t36 -23q30 -13 51 -27.5t21 -44.5q0 -87 -89 -88q-32 0 -53.5 14t-35.5 35.5t-19.5 46t-5.5 45.5zM247 90q0 51 31.5 82t82.5 31q49 0 81 -31 t32 -82q0 -49 -32 -81t-81 -32q-51 0 -82.5 32t-31.5 81z" />
<glyph unicode="@" horiz-adv-x="1474" d="M55 689q0 175 55.5 320t153 248.5t227.5 160t281 56.5q132 0 248.5 -49t203 -135.5t135.5 -203.5t49 -256q0 -102 -24.5 -197t-71.5 -166.5t-113 -115.5t-152 -44q-70 0 -111.5 27t-50.5 105q-17 -19 -42.5 -42.5t-56.5 -43.5t-66 -33t-71 -13q-21 0 -54.5 6.5t-65.5 34 t-55.5 84.5t-23.5 155q0 105 31 199.5t83.5 167t121.5 115t148 42.5q66 0 106.5 -24.5t64.5 -68.5q4 17 6 35t7 33h132l-132 -570q-4 -19 -5.5 -40.5t4 -39.5t19.5 -29.5t41 -11.5q60 0 108 39.5t80 101t49 139.5t17 153q0 90 -37 190t-110 184t-176 138.5t-236 54.5 q-119 0 -218.5 -48t-172 -140.5t-112 -229t-39.5 -311.5q0 -113 39.5 -224t112 -198.5t176 -142t233.5 -54.5q137 0 230 36t174 83l32 -64q-122 -75 -233 -104.5t-200 -29.5q-194 0 -334 71.5t-229.5 179t-132.5 233.5t-43 237zM602 587q0 -96 26.5 -136.5t69.5 -40.5 q38 0 79.5 39.5t77 106.5t59 155.5t23.5 184.5q0 21 -4.5 45.5t-14 46t-23.5 34.5t-35 13q-32 0 -77 -33t-84.5 -93t-68 -142t-28.5 -180z" />
<glyph unicode="A" horiz-adv-x="1267" d="M11 0v77h55q43 0 67.5 19t47.5 83l408 1295h60l456 -1397h154v-77h-525v77h171l-124 394h-425l-98 -313q-4 -19 -6 -35t4 -26t23.5 -15t53.5 -5h89v-77h-411zM380 548h379l-196 557z" />
<glyph unicode="B" horiz-adv-x="1132" d="M19 0v77h169v1288h-169v77h559q98 0 179 -27.5t136.5 -73.5t86.5 -107t31 -125q0 -90 -21 -151.5t-56.5 -101t-80 -62t-89.5 -32.5q55 -17 106.5 -47t91 -75t62.5 -105.5t23 -139.5q0 -107 -39 -182.5t-100 -122.5t-131.5 -68.5t-134.5 -21.5h-623zM367 77h166 q147 0 230.5 85t83.5 252q0 79 -28 137.5t-77 97t-116 57.5t-146 19h-113v-648zM367 802h134q62 0 122 8.5t105.5 38.5t74.5 86.5t29 152.5q0 38 -18 86t-59.5 91t-110 71.5t-168.5 28.5h-109v-563z" />
<glyph unicode="C" horiz-adv-x="1252" d="M83 721q0 158 46 295.5t123 239t179 160t218 58.5q70 0 120 -22.5t86.5 -50t64 -50t53.5 -22.5q43 0 56.5 23.5t13.5 59.5h81v-467h-81q0 85 -31 167.5t-84 145.5t-125.5 101t-153.5 38q-113 0 -183.5 -70t-111 -173.5t-55.5 -221t-15 -211.5q0 -96 15 -213.5 t55.5 -219.5t110.5 -172.5t184 -70.5q85 0 156.5 41.5t124.5 111t83 157t30 180.5h81v-509h-81q0 30 -15 64t-51 34q-19 0 -39.5 -24.5t-55.5 -53.5t-90.5 -53.5t-142.5 -24.5q-115 0 -217.5 58.5t-179.5 160t-123 239t-46 295.5z" />
<glyph unicode="D" horiz-adv-x="1305" d="M19 0v77h171v1288h-171v77h572q119 0 210 -34t159 -91.5t114 -132.5t73.5 -155t39.5 -160t12 -148q0 -166 -42.5 -300.5t-122.5 -227.5t-192 -143t-249 -50h-574zM369 77h171q60 0 138.5 19t150 85t120.5 194t49 346q0 122 -20 238t-77.5 207t-160 145t-269.5 54h-102 v-1288z" />
<glyph unicode="E" horiz-adv-x="1230" d="M30 0v77h160v1288h-160v77h1000l24 -380h-77q0 85 -24.5 143t-68 93t-104.5 51t-131 16h-282v-593h136q70 0 111 21.5t62.5 56.5t26.5 81t5 93h77v-570h-77q0 58 -5 103t-26.5 75.5t-62 46.5t-113.5 16h-134v-618h247q107 0 188 10.5t135.5 49t82 113t27.5 200.5h77v-450 h-1094z" />
<glyph unicode="F" horiz-adv-x="1105" d="M47 0v77h158v1288h-158v77h1005l21 -380h-77q-2 87 -24.5 145t-64 93t-101 50t-134.5 15h-288v-593h137q70 0 111.5 21.5t63 56.5t28 81t6.5 93h76v-570h-76q0 58 -6.5 103t-28 75.5t-63 46.5t-114.5 16h-134v-618h171v-77h-508z" />
<glyph unicode="G" horiz-adv-x="1320" d="M83 721q0 158 47 295.5t126 239t183.5 160t219.5 58.5q85 0 143 -21.5t97.5 -46t67 -45.5t53.5 -21q43 0 52.5 29.5t9.5 68.5h76v-469h-76q-2 81 -39.5 157.5t-97.5 137.5t-134.5 97t-151.5 36q-113 0 -185.5 -70t-114 -173.5t-57.5 -221t-16 -211.5t16 -210t58.5 -220.5 t114 -175t184.5 -70.5q58 0 114.5 12.5t101 38.5t72.5 67.5t28 98.5v156h-164v75h486v-75h-143v-232q-21 -21 -64 -57.5t-107 -72t-145 -62t-179 -26.5q-119 0 -224.5 49t-183.5 145t-123 236t-45 323z" />
<glyph unicode="H" horiz-adv-x="1386" d="M30 0v77h156v1288h-156v77h503v-77h-168v-584h657v584h-169v77h504v-77h-156v-1288h156v-77h-504v77h169v627h-657v-627h168v-77h-503z" />
<glyph unicode="I" horiz-adv-x="595" d="M47 0v77h160v1288h-160v77h501v-77h-162v-1288h162v-77h-501z" />
<glyph unicode="J" horiz-adv-x="695" d="M26 38q0 68 29.5 102.5t76.5 34.5q36 0 64 -24.5t28 -86.5q0 -43 -15 -63t-32 -29.5t-32 -12t-15 -6.5q0 -13 19.5 -20.5t63.5 -7.5q49 0 89.5 16t40.5 74q0 30 -4 47t-8.5 31t-8.5 30t-4 48v1194h-179v77h539v-77h-181v-1135q0 -183 -74.5 -282t-209.5 -99 q-96 0 -141.5 54t-45.5 135z" />
<glyph unicode="K" horiz-adv-x="1290" d="M47 0v77h162v1288h-162v77h523v-77h-182v-574l307 318q26 26 58 62t62 71.5t50 65.5t20 40q0 11 -15 14t-57 3h-100v77h531v-77h-62q-38 0 -73.5 -13.5t-67.5 -35t-58.5 -47t-48.5 -44.5l-364 -382l492 -704q23 -36 41.5 -49t57.5 -13h98v-77h-529v77h162l-453 618 l-51 -51v-567h182v-77h-523z" />
<glyph unicode="L" horiz-adv-x="1230" d="M47 0v77h175v1288h-175v77h535v-77h-181v-1288h213q128 0 215.5 12.5t140 56.5t75 128t22.5 227h76v-501h-1096z" />
<glyph unicode="M" horiz-adv-x="1531" d="M30 0v73h57q34 0 56.5 6t35.5 22t17.5 45t4.5 72v1147h-171v77h382l382 -1122l373 1122h333v-77h-158v-1292h158v-73h-506v73h169v1092l-384 -1133h-71l-431 1186v-1000q0 -43 4.5 -72t17 -45t35 -22t59.5 -6h68v-73h-431z" />
<glyph unicode="N" horiz-adv-x="1369" d="M19 0v77h43q64 0 89.5 16t25.5 78v1194h-158v77h408l687 -1054v894q0 49 -16 66t-78 17h-83v77h416v-77h-67q-62 0 -79 -17t-17 -66v-1295h-66l-870 1336v-1152q0 -62 25.5 -78t87.5 -16h70v-77h-418z" />
<glyph unicode="O" horiz-adv-x="1292" d="M83 721q0 158 45 295.5t121.5 239t179 160t217.5 58.5t217.5 -58.5t179.5 -160t122 -239t45 -295.5t-45 -295.5t-122 -239t-179 -160t-218 -58.5q-115 0 -217.5 58.5t-179 160t-121.5 239t-45 295.5zM286 721q0 -64 7.5 -138.5t24.5 -149.5t43.5 -145t67 -124.5t94 -86.5 t123.5 -32q105 0 174.5 70.5t111 174t58.5 220.5t17 211t-17 211.5t-58.5 221t-111 173.5t-174.5 70t-174 -70t-110.5 -173.5t-58.5 -221t-17 -211.5z" />
<glyph unicode="P" horiz-adv-x="1145" d="M30 0v77h179v1288h-179v77h552q98 0 185.5 -21.5t153 -69.5t102.5 -125.5t37 -190.5t-41.5 -192t-107.5 -127t-148 -69.5t-161 -21.5q-41 0 -103 6.5t-111 25.5v-580h182v-77h-540zM388 732q11 -6 32.5 -12.5t47 -12t52 -7.5t50.5 -2q45 0 96 17t93.5 55.5t71.5 98 t29 146.5q0 169 -79 259.5t-241 90.5h-152v-633z" />
<glyph unicode="Q" horiz-adv-x="1292" d="M83 721q0 158 45 295.5t121.5 239t179 160t217.5 58.5t217.5 -58.5t179.5 -160t122 -239t45 -295.5q0 -139 -36.5 -263.5t-100.5 -224t-150.5 -165.5t-186.5 -87v-203q0 -30 9.5 -52.5t35 -38.5t71.5 -23t119 -7h79v-77h-101q-70 0 -139.5 7.5t-126 31t-91.5 68 t-35 119.5v175q-100 19 -186.5 85t-150.5 165.5t-100.5 225t-36.5 264.5zM286 721q0 -64 7.5 -138.5t24.5 -149.5t43.5 -145t67 -124.5t94 -86.5t123.5 -32q105 0 174.5 70.5t111 174t58.5 220.5t17 211t-17 211.5t-58.5 221t-111 173.5t-174.5 70t-174 -70t-110.5 -173.5 t-58.5 -221t-17 -211.5z" />
<glyph unicode="R" horiz-adv-x="1218" d="M47 0v77h179v1288h-179v77h567q77 0 153 -14t136.5 -54.5t99 -113t38.5 -189.5q0 -77 -24.5 -131.5t-65 -94t-89.5 -64t-96 -39.5q96 -28 158 -102.5t77 -229.5l23 -239q17 -60 46 -83.5t52 -23.5q15 0 25.5 1t40.5 12l22 -58q-30 -15 -64.5 -23.5t-87.5 -8.5 q-79 0 -125 28t-71.5 78t-36 118t-19.5 150q-6 102 -22 169t-47 105.5t-78 53.5t-115 15h-139v-627h180v-77h-538zM405 781h111q160 0 246.5 71.5t86.5 218.5q0 47 -10.5 99t-42.5 95t-91 71.5t-155 28.5h-145v-584z" />
<glyph unicode="S" horiz-adv-x="1051" d="M100 -13v544h77q0 -124 31 -215.5t85.5 -151t126 -89.5t152.5 -30q66 0 119.5 22.5t91.5 59.5t58.5 87.5t20.5 107.5q0 137 -72.5 198.5t-222.5 85.5q-107 15 -188.5 39.5t-139.5 72.5t-87.5 130t-29.5 214q0 90 29.5 165.5t80 130t115.5 85.5t137 31q68 0 116.5 -19 t82.5 -41.5t58.5 -40.5t47.5 -18q36 0 46 25.5t10 46.5h77v-458h-77q-6 85 -28.5 163t-65.5 136.5t-108 93.5t-159 35q-62 0 -114 -29.5t-89.5 -72.5t-57.5 -90t-20 -79q0 -58 21 -101.5t68 -75.5t119.5 -56.5t173.5 -45.5q90 -19 158 -48t113.5 -76t70 -114t24.5 -165 q0 -254 -100 -365t-284 -111q-62 0 -112 16t-90.5 36.5t-74.5 36.5t-66 16t-39.5 -29t-7.5 -57h-77z" />
<glyph unicode="T" horiz-adv-x="1265" d="M51 988v454h1163v-454h-77q0 122 -16 196.5t-58.5 115t-117.5 53t-194 12.5h-28v-1292h182v-73h-544v73h183v1292h-26q-122 0 -197.5 -12.5t-119 -53t-58.5 -115.5t-15 -196h-77z" />
<glyph unicode="U" horiz-adv-x="1326" d="M19 1367v75h536v-75h-190v-1017q0 -81 26.5 -138.5t69 -94t99.5 -54.5t114 -18q85 0 158 23.5t125 72.5t81 125.5t29 183.5v804q0 68 -26 90.5t-85 22.5h-101v75h470v-75h-83q-58 0 -78.5 -24.5t-20.5 -90.5v-825q0 -122 -40.5 -209.5t-106.5 -143t-151.5 -81 t-172.5 -25.5q-111 0 -200.5 18t-153.5 65t-98 127t-34 204v985h-167z" />
<glyph unicode="V" horiz-adv-x="1344" d="M30 1367v75h525v-75h-167l327 -1090l296 952q21 55 22 89q0 28 -33.5 38.5t-122.5 10.5v75h437v-75h-47q-70 0 -108.5 -37t-55.5 -86l-416 -1293h-60l-446 1416h-151z" />
<glyph unicode="W" horiz-adv-x="1536" d="M30 1367v75h412v-75h-86l337 -1079l135 420l-207 659h-113v75h766v-75h-49q-55 0 -88.5 -16t-50.5 -77l-128 -391l183 -595l308 986q17 60 17 64q0 13 -15 21t-69 8h-57v75h375v-75q-81 0 -117 -28.5t-56 -90.5l-418 -1297h-51l-190 627l-207 -627h-53l-446 1416h-132z M802 1367l120 -369l76 269q9 23 12 43.5t3 31.5t-11.5 18t-60.5 7h-139z" />
<glyph unicode="X" horiz-adv-x="1331" d="M19 0v73h54q64 0 114 19t88 70l339 570l-328 633h-160v77h516v-77h-136l234 -463l207 382q26 45 26 56q0 15 -19.5 20t-87.5 5h-53v77h433v-77h-58q-62 0 -92.5 -22t-67.5 -86l-249 -431l384 -753h151v-73h-518v73h151l-292 578l-256 -442q-43 -68 -52.5 -91.5 t-9.5 -30.5q0 -14 62 -14h8h86l-4 -73h-470z" />
<glyph unicode="Y" horiz-adv-x="1233" d="M19 1365v77h519v-77h-135l280 -710l226 531q23 55 35 91.5t12 60.5q0 15 -18.5 21t-67.5 6h-72v77h418v-77h-77q-55 0 -75.5 -26.5t-37.5 -67.5l-331 -742v-452h188v-77h-557v77h188v448l-331 840h-164z" />
<glyph unicode="Z" horiz-adv-x="1245" d="M68 0l760 1365h-256q-122 0 -195.5 -26.5t-113 -74.5t-51 -112t-11.5 -137h-77v427h964l-768 -1369h186q90 0 184.5 9.5t172.5 38t128 81t50 139.5v98h77v-439h-1050z" />
<glyph unicode="[" horiz-adv-x="795" d="M265 -471v1956h411v-90h-311v-1779h311v-87h-411z" />
<glyph unicode="\" horiz-adv-x="1706" d="M23 819v77h282l-149 469h-133v77h408v-77h-88l148 -469h264l-143 469h-111v77h760v-77h-47q-58 0 -91 -16t-50 -78l-122 -375h355l121 375q17 55 17 64q0 13 -15 21.5t-68 8.5h-47v77h369v-77q-81 0 -117 -28.5t-53 -88.5l-114 -352h284v-77h-307l-279 -868h-50l-189 634 l-207 -634h-52l-273 868h-303zM514 819l160 -501l132 414l-23 87h-269zM794 1365l106 -339l79 239q9 23 12 43.5t3 31.5q0 9 -11.5 17t-65.5 8h-123zM964 819l156 -501l162 501h-318z" />
<glyph unicode="]" horiz-adv-x="795" d="M119 -384h314v1779h-314v90h414v-1956h-414v87z" />
<glyph unicode="^" horiz-adv-x="1105" d="M154 670l358 759h81l358 -759h-102l-296 642l-297 -642h-102z" />
<glyph unicode="_" d="M21 26h879v-88h-879v88z" />
<glyph unicode="`" horiz-adv-x="512" d="M47 1323q0 36 23.5 58.5t46.5 22.5q26 0 45 -15t39 -34l283 -318h-94l-283 198q-28 19 -44 37.5t-16 50.5z" />
<glyph unicode="a" horiz-adv-x="891" d="M77 211q0 90 44.5 148.5t113 92.5t147.5 48t149 14h32v220q0 28 -12.5 45t-34 26.5t-46 13.5t-50.5 4q-21 0 -50 -3t-55.5 -11.5t-45.5 -21.5t-19 -32q0 -11 10.5 -17t23.5 -15.5t23.5 -28t10.5 -52.5q0 -43 -29 -71.5t-78 -28.5t-74.5 34t-25.5 92q0 43 23.5 84.5 t65 75.5t98 54t122.5 20q49 0 101.5 -16t95 -48t69.5 -80t27 -109v-519q0 -23 8.5 -43.5t46.5 -20.5q36 0 57.5 20.5t40.5 52.5l47 -17q-36 -64 -86 -106t-106 -42q-49 0 -90.5 34.5t-58.5 85.5q-68 -68 -129 -94t-140 -26q-109 0 -167.5 61t-58.5 176zM237 241q0 -36 4 -68 t19 -54.5t42 -35.5t69 -13q53 0 89.5 15t59 36.5t33 41.5t10.5 33v237h-28q-51 0 -104 -4t-96 -22.5t-70.5 -57t-27.5 -108.5z" />
<glyph unicode="b" horiz-adv-x="964" d="M19 0v77h115v1301h-115v77h118q49 0 91.5 2t55.5 17v-734q41 62 105.5 112t145.5 50q79 0 144.5 -42.5t112 -109.5t71 -149.5t24.5 -161.5q0 -94 -25.5 -178t-72.5 -148t-114 -101.5t-152 -37.5q-38 0 -73.5 13t-66.5 33.5t-56.5 43.5t-42.5 47v-111h-265zM284 309 q0 -49 22.5 -94.5t57.5 -80t77.5 -55.5t81.5 -24q58 0 96 21.5t61.5 67.5t34 118.5t10.5 176.5q0 192 -41.5 288t-148.5 96q-55 0 -101 -29.5t-80 -72.5t-52 -92t-18 -89v-231z" />
<glyph unicode="c" horiz-adv-x="789" d="M68 405q0 102 31 192t84.5 158t124 107.5t149.5 39.5q47 0 94.5 -13.5t86 -39.5t63 -65t24.5 -91q0 -49 -22 -81t-67 -32q-55 0 -82 32t-27 69q0 34 7.5 52t17 27.5t18 15t8.5 11.5q0 19 -42.5 27.5t-81.5 8.5q-66 0 -108.5 -20t-68 -58.5t-35 -92t-9.5 -117.5v-172 q0 -60 4 -115.5t24.5 -98t63 -68.5t121.5 -26q58 0 100.5 26t70 64t42.5 86t19 93h62q-2 -64 -24.5 -127t-60.5 -113t-91.5 -80t-117.5 -30q-87 0 -156.5 34.5t-118.5 94t-76 137.5t-27 165z" />
<glyph unicode="d" horiz-adv-x="964" d="M77 439q0 79 24.5 161.5t70.5 149.5t111 109.5t146 42.5t143 -50t104 -112v634h-138v81h138q47 0 92 2t58 17v-1397h119v-77h-269v111q-19 -23 -46.5 -48t-57.5 -44t-64 -32t-66 -13q-83 0 -150.5 37.5t-115.5 101.5t-73.5 148.5t-25.5 177.5zM239 439q0 -209 50 -296.5 t153 -87.5q38 0 78.5 22.5t75.5 59t57.5 81t22.5 89.5v233q0 45 -20 95t-54.5 91.5t-79 69t-93.5 27.5q-92 0 -141 -96t-49 -288z" />
<glyph unicode="e" horiz-adv-x="791" d="M68 439q0 77 22.5 158t64 149.5t103.5 112t141 43.5q85 0 146 -45.5t98.5 -106.5t54.5 -122t17 -93q0 -43 -32 -42h-450v-162q0 -49 5 -98.5t24.5 -88.5t57.5 -64t102 -25q109 0 171 71.5t81 199.5h60q-26 -162 -107 -257t-205 -95q-79 0 -144 34.5t-112 95t-72.5 146 t-25.5 189.5zM233 570h305q15 0 15 15v19q0 41 -12 81t-32 70t-49 49t-61 19t-63 -19t-53.5 -49t-36 -70.5t-13.5 -80.5v-34z" />
<glyph unicode="f" horiz-adv-x="586" d="M41 0v77h157v706h-157v77h157v113q0 96 19.5 192t54.5 170.5t87.5 121.5t118.5 47q77 0 117.5 -41.5t40.5 -99.5q0 -43 -17 -76t-69 -33q-26 0 -49 23.5t-23 53.5q0 26 10.5 38.5t23.5 20t23.5 12t10.5 12.5q0 4 -20 7.5t-40 3.5q-68 0 -103 -65t-35 -185v-315h200v-77 h-200v-706h160v-77h-467z" />
<glyph unicode="g" horiz-adv-x="915" d="M43 -277q0 47 13.5 82t36 60.5t49.5 45t52 34.5q-36 17 -67 73.5t-31 126.5q0 100 23.5 151.5t78.5 61.5q-30 30 -63 87.5t-33 124.5q0 83 29 145t75 103.5t104.5 62.5t116.5 21t112 -16t97 -52q23 30 59.5 49t85.5 19q51 0 82 -21t31 -70q0 -87 -81 -88 q-38 0 -59.5 22.5t-21.5 50.5q0 15 2 21q-15 -9 -24.5 -20.5t-20.5 -22.5q23 -32 44.5 -78.5t21.5 -119.5q0 -79 -26.5 -137.5t-71.5 -98t-104.5 -59t-125.5 -19.5q-85 0 -141 35q-55 -4 -81 -36.5t-26 -64.5q0 -28 22.5 -56.5t56.5 -28.5h380q36 0 70 -6.5t62 -30t44 -68 t16 -119.5q0 -113 -36.5 -196.5t-97 -137.5t-137.5 -81t-156 -27q-62 0 -125 14t-116 47t-86 86.5t-33 130.5zM173 -269q0 -100 60.5 -154.5t176.5 -54.5q83 0 146 33t105.5 81t64 100.5t21.5 88.5q0 64 -49 87.5t-118 23.5h-273q-21 -6 -44.5 -26.5t-44 -49.5t-33 -62 t-12.5 -67zM269 582q0 -43 6.5 -86.5t23.5 -78.5t48 -56.5t80 -21.5q47 0 79 19.5t50 51.5t25.5 73.5t7.5 88.5v21q0 102 -33 166t-129 64q-49 0 -80 -24.5t-48 -60.5t-23.5 -78t-6.5 -78z" />
<glyph unicode="h" horiz-adv-x="987" d="M23 0v77h137v1301h-137v77h137q49 0 90.5 3t58.5 20v-753q19 30 47 62t62 57.5t74.5 41.5t87.5 16q70 0 117.5 -20t75 -54t39 -79t11.5 -94v-578h139v-77h-422v77h134v625q0 68 -30 94.5t-77 26.5q-53 0 -95.5 -24.5t-74.5 -58.5t-54.5 -70t-33.5 -62v-531h133v-77h-419z " />
<glyph unicode="i" horiz-adv-x="456" d="M30 0v77h124v691h-124v77h128q34 0 74.5 1t70.5 5v-774h124v-77h-397zM122 1239q0 47 30.5 76t75.5 29t76 -29t31 -76t-31 -77.5t-76 -30.5t-75.5 30.5t-30.5 77.5z" />
<glyph unicode="j" horiz-adv-x="518" d="M6 -442q0 30 19.5 46t49.5 16q64 0 64 -62q0 -15 -5 -19q34 0 45 25.5t11 53.5q0 30 -3.5 52.5t-6.5 42.5t-5 43.5t-2 55.5v956h-152v77h150q36 0 77.5 1t73.5 5v-1041q0 -55 -19 -115t-52 -108t-76 -79t-90 -31q-36 0 -57.5 23.5t-21.5 57.5zM137 1239q0 47 32 76t74 29 q47 0 79 -29t32 -76t-32 -77.5t-79 -30.5q-43 0 -74.5 30.5t-31.5 77.5z" />
<glyph unicode="k" horiz-adv-x="957" d="M23 0v77h137v1301h-137v77h137q49 0 90.5 3t58.5 20v-1053l258 283q19 21 36.5 41.5t17.5 29.5q0 4 -81 4h-60v77h412v-77h-60q-26 0 -45 -2t-36 -9.5t-34 -21.5t-39 -35l-196 -218l256 -350q26 -36 43 -53t49 -17h109v-77h-440v77h111l-235 309l-66 -77v-232h120v-77 h-406z" />
<glyph unicode="l" horiz-adv-x="490" d="M30 0v77h145v1301h-145v77h143q45 0 89.5 4t61.5 30v-1412h137v-77h-431z" />
<glyph unicode="m" horiz-adv-x="1482" d="M23 0v77h137v706h-137v77h137q73 0 103.5 2t45.5 17v-143q19 28 47 57.5t61 54.5t71.5 39.5t81.5 14.5q77 0 144 -34t95 -128q36 62 109.5 112t160.5 50q66 0 112 -22t75 -58.5t42 -83.5t13 -98v-563h136v-77h-422v77h136v595q0 92 -36 121.5t-90 29.5q-38 0 -73 -21 t-66 -55t-53.5 -78t-35.5 -89v-503h132v-77h-420v77h139v633q0 62 -31 87.5t-87 25.5q-34 0 -69 -20t-67 -52t-58.5 -70.5t-46.5 -74.5v-529h133v-77h-419z" />
<glyph unicode="n" horiz-adv-x="987" d="M23 0v77h137v706h-137v77h137q75 0 104.5 2t44.5 17v-162q19 28 47 61t62 60.5t74.5 45.5t87.5 18q70 0 117.5 -20t75 -54t39 -79t11.5 -94v-578h139v-77h-422v77h134v625q0 68 -30 94.5t-77 26.5q-53 0 -95.5 -24.5t-74.5 -58.5t-54.5 -70t-33.5 -62v-531h133v-77h-419z " />
<glyph unicode="o" horiz-adv-x="887" d="M68 439q0 90 23.5 173t70.5 147t117.5 103.5t164.5 39.5q92 0 162 -39.5t118 -103.5t71.5 -147t23.5 -173t-23.5 -174t-71.5 -149t-118.5 -103.5t-161.5 -38.5q-94 0 -164.5 38.5t-117.5 103.5t-70.5 149t-23.5 174zM235 363q0 -60 11.5 -115.5t36 -98t64 -68.5t97.5 -26 t97 26t63.5 68.5t36.5 98t12 115.5v153q0 60 -12 115.5t-36.5 98t-64 68t-96.5 25.5q-58 0 -97.5 -25.5t-64 -68t-36 -98t-11.5 -115.5v-153z" />
<glyph unicode="p" horiz-adv-x="979" d="M19 -459h118v1242h-118v77h158q36 0 64 2t45 19v-145q17 30 40.5 60t55.5 53.5t71.5 38t88.5 14.5q96 0 164 -42.5t112 -109.5t64 -149.5t20 -161.5q0 -94 -21 -178t-67 -148t-116.5 -101.5t-168.5 -37.5q-38 0 -75.5 13t-68.5 34.5t-56.5 46t-42.5 47.5v-574h132v-76 h-399v76zM286 307q0 -43 21.5 -86.5t56.5 -81t78.5 -61t86.5 -23.5q47 0 86.5 21.5t67 67.5t42.5 118.5t15 176.5q0 192 -54.5 288t-143.5 96q-49 0 -95 -25.5t-81 -66t-57.5 -91.5t-22.5 -100v-233z" />
<glyph unicode="q" horiz-adv-x="979" d="M77 439q0 79 20 161.5t64 149.5t112 109.5t164 42.5q47 0 85.5 -14.5t70.5 -38t56.5 -53.5t41.5 -62v149q17 -17 58.5 -20t91.5 -3h119v-77h-119v-1242h119v-76h-401v76h132v574q-17 -23 -42.5 -47.5t-56.5 -45t-67 -34.5t-75 -14q-98 0 -168.5 37.5t-116.5 101.5 t-67 148.5t-21 177.5zM237 439q0 -105 16 -177t43.5 -118t67 -67.5t84.5 -21.5q38 0 81 23.5t79 61t59.5 81.5t23.5 86v233q0 45 -21 95t-56.5 91.5t-81.5 69t-97 27.5q-90 0 -144 -94t-54 -290z" />
<glyph unicode="r" horiz-adv-x="686" d="M23 0v77h146v706h-146v77h146q49 0 90.5 3t58.5 20v-162q15 28 37.5 60t51 58.5t66 44.5t82.5 18q49 0 81 -37t32 -101q0 -38 -29 -68t-67 -30q-36 0 -66 29.5t-30 68.5q0 15 5 28.5t14 24.5q-30 -11 -61 -38.5t-56.5 -72.5t-42.5 -106.5t-17 -138.5v-384h160v-77h-455z " />
<glyph unicode="s" horiz-adv-x="759" d="M90 333h51q6 -38 19 -86.5t40.5 -91t74.5 -71.5t122 -29t124 42t49 118q0 47 -19.5 75t-50.5 44t-66 22.5t-67 10.5q-43 4 -88.5 13.5t-86.5 35.5t-66.5 75t-25.5 134q0 115 63 196t198 81q32 0 60.5 -10.5t53 -24.5t41.5 -24.5t28 -10.5q15 0 15 19v41h55v-282h-42 q-6 41 -19 80.5t-38.5 69t-64 48t-94.5 18.5q-73 0 -119.5 -34.5t-46.5 -102.5t47 -106.5t143 -38.5q62 0 115 -10.5t91.5 -37.5t61 -74t22.5 -119q0 -151 -70.5 -240t-202.5 -89q-45 0 -81.5 14t-65 30t-48 30t-27.5 14q-17 0 -20.5 -6.5t-3.5 -19.5v-49h-57z" />
<glyph unicode="t" horiz-adv-x="608" d="M19 783v77h32q113 0 152.5 68t39.5 207h77v-275h241v-77h-241v-644q0 -49 22.5 -66.5t64.5 -17.5q26 0 46.5 14t34 34.5t21 40.5t9.5 33h71q-6 -26 -21 -61t-41 -67t-63 -53.5t-89 -21.5q-96 0 -150 44t-54 159v606h-152z" />
<glyph unicode="u" horiz-adv-x="989" d="M34 783v77h141q47 0 89.5 3t59.5 20v-712q0 -115 111 -116q47 0 89.5 25t76 64t52.5 89.5t19 101.5v448h-137v77h137q47 0 89.5 5t59.5 25v-813h137v-77h-286v139q-17 -23 -40.5 -52t-55.5 -53.5t-70.5 -42t-85.5 -17.5q-68 0 -114 20.5t-75.5 53.5t-42.5 78t-13 94v563 h-141z" />
<glyph unicode="v" horiz-adv-x="945" d="M19 783v77h399v-77h-119l211 -563l166 435q15 36 24.5 64t9.5 38q0 17 -28.5 21.5t-52.5 4.5h-47v77h344v-77q-62 0 -89.5 -14t-49.5 -71l-294 -747h-43l-326 832h-105z" />
<glyph unicode="w" horiz-adv-x="1341" d="M19 783v77h794v-77h-128l215 -561l173 437q11 30 16 54.5t5 35.5q0 19 -19 26.5t-70 7.5h-32v77h350v-77q-41 0 -66.5 -7.5t-41.5 -21.5t-26.5 -35t-19.5 -47l-284 -721h-36l-183 467l-180 -467h-36l-328 832h-103zM297 783l209 -550l111 294l-101 256h-219z" />
<glyph unicode="x" horiz-adv-x="945" d="M19 0v77h41q68 0 108.5 33t89.5 99l158 233l-183 341h-135v77h408v-77h-90l122 -226l91 141q17 23 30 46.5t13 29.5q0 9 -79 9h-34v77h363v-77h-41q-51 0 -85 -21.5t-66 -61.5l-148 -224l220 -399h124v-77h-427v77h120l-156 284l-134 -186q-43 -60 -43 -90q0 -4 9.5 -6 t37.5 -2h70v-77h-384z" />
<glyph unicode="y" horiz-adv-x="938" d="M19 783v77h391v-77h-113l228 -585l149 485q6 23 12.5 44.5t6.5 29.5q0 17 -24.5 21.5t-79.5 4.5h-58v77h388v-77q-43 0 -67 -5.5t-39 -17t-24.5 -32t-20.5 -52.5l-309 -945q-28 -75 -50.5 -126t-48 -82t-59.5 -44.5t-88 -13.5q-64 0 -100 42.5t-36 102.5q0 36 30 64.5 t66 28.5q43 0 69.5 -27.5t26.5 -65.5q0 -28 17 -28q30 0 53 77l105 303l-325 821h-100z" />
<glyph unicode="z" horiz-adv-x="842" d="M30 0l514 783h-134q-68 0 -113 -20.5t-70.5 -55.5t-36.5 -85t-11 -110h-77v348h681l-508 -783h203q64 0 108.5 11.5t73.5 42.5t43 82.5t14 127.5h77v-341h-764z" />
<glyph unicode="{" horiz-adv-x="795" d="M134 493v25q64 11 101.5 30t56.5 49t24.5 69.5t5.5 92.5v438q0 92 15 150.5t50 92.5t91.5 46t140.5 12v-88q-70 0 -109 -17t-58 -48t-23 -74.5t-4 -97.5v-382q0 -117 -17.5 -186.5t-91.5 -98.5q75 -32 92 -100.5t17 -185.5v-384q0 -53 3 -97t21 -75t57.5 -48t112.5 -17 v-88q-83 0 -140 13t-92 47t-50 93t-15 150v438q0 53 -5.5 92.5t-24.5 68.5t-56.5 48t-101.5 32z" />
<glyph unicode="|" horiz-adv-x="768" d="M333 -503v2037h102v-2037h-102z" />
<glyph unicode="}" horiz-adv-x="795" d="M177 -401q70 0 109.5 17t58 48t22.5 74.5t4 97.5v384q0 60 2 105.5t14 81t34.5 59t60.5 40.5q-68 32 -89.5 101t-21.5 184v382q0 55 -3 99t-21 75t-57.5 47t-112.5 16v88q83 0 139.5 -12t92 -46t50.5 -92.5t15 -150.5v-438q0 -51 5 -91.5t24.5 -69t56.5 -49t101 -31.5 v-25q-64 -13 -101 -32t-56.5 -48t-24.5 -69.5t-5 -91.5v-438q0 -92 -15 -150.5t-50.5 -92.5t-92 -47t-139.5 -13v88z" />
<glyph unicode="~" horiz-adv-x="1105" d="M124 435q64 102 114 162t120 60q60 0 109 -26.5t98 -60.5q41 -28 84.5 -52.5t90.5 -24.5q26 0 49.5 18t43.5 46t37 58.5t30 56.5l90 -66q-21 -30 -47 -67.5t-57 -72.5t-65 -58.5t-72 -23.5q-73 0 -125 26.5t-97 63.5q-38 30 -76.5 52t-85.5 22q-26 0 -47 -18t-40.5 -44.5 t-36.5 -57.5t-30 -59z" />
<glyph horiz-adv-x="960" />
<glyph unicode="&#xa1;" horiz-adv-x="614" d="M183 -356q0 23 1.5 40t5.5 36.5t8.5 45t14.5 70.5q15 73 28 159t22.5 173.5t14 169.5t4.5 148h51q0 -66 4 -148t14 -169.5t21.5 -174t26.5 -158.5q11 -45 16 -70.5t9.5 -45t5.5 -36.5t1 -40q0 -62 -38.5 -93t-87.5 -31q-47 0 -84.5 31t-37.5 93zM186 813q0 28 10.5 52.5 t27.5 41.5t38.5 27.5t42.5 10.5q45 0 81 -38.5t36 -93.5q0 -53 -36 -91.5t-81 -38.5t-82 38t-37 92z" />
<glyph unicode="&#xa2;" d="M119 405q0 100 34.5 177t89 128.5t123.5 78t137 26.5q53 0 111 -15l84 254h70l-94 -280q43 -23 73 -67t30 -99q0 -43 -25 -77t-67 -38h-7q-21 0 -47.5 7.5t-39.5 24.5l-160 -489q9 -6 27 -12.5t39 -6.5q98 0 164 67t90 172h45q-21 -134 -106.5 -208t-203.5 -74 q-21 0 -40 2.5t-32 10.5l-96 -284h-64l100 299q-43 17 -85.5 48t-75.5 79t-53.5 116.5t-20.5 159.5zM324 286q0 -81 15 -132.5t39 -80.5l145 448q13 43 26.5 82t52.5 56q23 11 23 45q0 21 -15 35t-36 21.5t-41.5 10.5t-33.5 3q-64 0 -100 -34t-52 -81t-19.5 -98t-3.5 -83 v-192z" />
<glyph unicode="&#xa3;" d="M28 105q0 75 49 113t111 38q36 0 72.5 -10.5t68.5 -21.5q4 55 -8 109.5t-27 108.5q-17 55 -32 108.5t-21 108.5h-198v58h190q-4 32 -6.5 54.5l-4.5 40.5t-2 34v39q0 94 24.5 174t70.5 137.5t114 91t156 33.5q49 0 97 -16t86 -48t61.5 -79t23.5 -107q0 -62 -32 -109 t-91 -47q-49 0 -71.5 34t-22.5 86q0 30 21 62t51 32q11 0 20.5 -1.5t18.5 -1.5q28 0 27 35q0 15 -11.5 34t-33 37t-54.5 30t-76 12q-102 0 -144.5 -66.5t-42.5 -172.5q0 -81 15 -161t27 -157h224v-58h-215q21 -111 10.5 -230.5t-55.5 -232.5q49 -15 98 -23.5t101 -8.5 q92 0 149 46t64 157l38 -2q-4 -70 -11.5 -142t-33 -130.5t-71.5 -96t-125 -37.5q-73 0 -136.5 42t-119.5 91q-15 -28 -37.5 -51.5t-51 -41.5t-59.5 -29t-59 -11q-60 0 -98 38.5t-38 107.5zM73 98q0 -43 27.5 -67.5t63.5 -24.5q19 0 44 13t46 32t38 42.5t24 43.5 q-23 26 -63 41.5t-72 15.5q-38 0 -73 -23.5t-35 -72.5z" />
<glyph unicode="&#xa4;" d="M68 634q0 75 25.5 148t70.5 140q-23 26 -43.5 49t-43.5 47l42 49l90 -101q115 96 258 96q68 0 137.5 -24.5t118.5 -71.5q23 23 45.5 49t46.5 50l45 -50l-90 -93q94 -139 94 -291q0 -147 -94 -285q23 -26 44.5 -47.5t45.5 -46.5l-45 -49l-92 100q-55 -49 -121.5 -74.5 t-140.5 -25.5q-68 0 -133.5 28.5t-118.5 71.5q-23 -23 -44.5 -50t-45.5 -52l-42 49l87 96q-43 68 -69.5 141.5t-26.5 146.5zM164 636q0 -70 23.5 -134.5t65 -112.5t96 -75.5t116.5 -27.5t117.5 26.5t97 73.5t66 110t24.5 135q0 73 -23.5 138t-64 112t-96 74.5t-119.5 27.5 q-62 0 -117.5 -27.5t-97 -74.5t-65 -111t-23.5 -134z" />
<glyph unicode="&#xa5;" d="M4 1269v52h446v-52h-134l228 -565l215 565h-123v52h281v-52h-102l-239 -627v-107h250v-51h-250v-119h250v-51h-250v-263h164v-51h-510v51h158v263h-247v51h247v119h-247v51h247v64l-292 670h-92z" />
<glyph unicode="&#xa6;" horiz-adv-x="1032" d="M467 358h98v-716h-98v716zM467 666v716h98v-716h-98z" />
<glyph unicode="&#xa7;" d="M134 599q0 124 71.5 189t178.5 55q-32 32 -65 64t-57.5 68t-40.5 79t-16 98q0 62 22.5 108t57.5 76.5t82 46.5t100 16q41 0 81.5 -12.5t74.5 -39t54.5 -65t20.5 -89.5q0 -49 -29 -76t-72 -27q-34 0 -56.5 26.5t-22.5 65.5q0 23 10 39t20.5 29t20 22.5t9.5 20.5 q0 19 -14 30.5t-33 19t-38 11t-30 3.5q-60 0 -108 -37.5t-48 -112.5q0 -41 23.5 -82t49.5 -69q81 -75 168.5 -150.5t155.5 -165.5q38 -49 60.5 -101t22.5 -116q0 -122 -67 -192.5t-176 -59.5q34 -34 65 -66t53.5 -68.5t37.5 -80t15 -97.5q0 -64 -26 -110.5t-64 -76.5 t-86 -45t-93 -15q-38 0 -82 11.5t-82.5 37.5t-63 63t-24.5 89q0 47 24.5 80t69.5 33q41 0 67.5 -22.5t26.5 -71.5q0 -19 -10.5 -36.5t-22.5 -30t-21.5 -22t-9.5 -16.5q2 -21 19 -35t37.5 -22.5t42.5 -11.5t37 -3q62 0 109 39.5t47 113.5q0 62 -35 112t-88.5 97t-114.5 94 t-114 103.5t-88.5 126t-35.5 158.5zM226 655q0 -30 12 -60t30 -56.5t39.5 -50t40.5 -42.5t43.5 -42.5t52 -43t55.5 -33t58 -13.5q62 0 98 41.5t36 109.5q0 28 -14 55.5t-33 55.5t-40.5 51.5t-38.5 40.5q-19 19 -43.5 42.5t-52 43.5t-56.5 33t-59 13q-55 0 -91.5 -41.5 t-36.5 -103.5z" />
<glyph unicode="&#xa8;" horiz-adv-x="614" d="M21 1178q0 45 30 76.5t68 31.5q41 0 70 -32t29 -76q0 -45 -29 -77t-70 -32q-38 0 -68 32t-30 77zM393 1178q0 45 29.5 76.5t70.5 31.5t69.5 -32t28.5 -76q0 -45 -28.5 -77t-69.5 -32t-70.5 32t-29.5 77z" />
<glyph unicode="&#xa9;" horiz-adv-x="1401" d="M66 683q0 147 49 277t134.5 227t200.5 154.5t248 57.5q132 0 249.5 -55t203.5 -151t135 -227.5t49 -282.5q0 -149 -50 -279.5t-137.5 -226.5t-204 -151.5t-248.5 -55.5q-130 0 -245 56.5t-200.5 154.5t-134.5 227.5t-49 274.5zM132 685q0 -132 45 -249.5t121.5 -205 t180 -137.5t216.5 -50q119 0 225 51t183 139.5t121.5 205t44.5 246.5q0 134 -44.5 250.5t-122.5 203t-182.5 136.5t-221.5 50q-115 0 -219 -51.5t-180.5 -139t-121.5 -203.5t-45 -246zM324 698q0 122 57.5 226t160.5 168q36 19 77.5 29t84.5 10q51 0 99 -15t89 -49l47 51h25 v-235h-34q-15 100 -77 159t-149 59q-60 0 -93 -17t-65 -66q-21 -34 -30.5 -76t-13 -85.5t-2.5 -87.5t1 -82q0 -53 2.5 -119.5t19.5 -128.5q15 -58 57.5 -94t110.5 -40q55 -4 97 13t72 49t50 75.5t33 95.5h32v-254h-26l-51 59q-38 -36 -94.5 -52t-108.5 -16q-79 0 -147 37.5 t-118 97t-78 135.5t-28 153z" />
<glyph unicode="&#xaa;" horiz-adv-x="552" d="M23 1015q0 55 31 88.5t76 50.5q32 15 73.5 21.5t75.5 6.5h43v149q0 11 -9.5 18.5t-22.5 12.5t-25.5 7.5t-21.5 2.5q-17 0 -35 -3.5t-31 -9.5t-18 -13.5t3 -16.5q2 -9 8.5 -24.5t6.5 -35.5q0 -21 -19 -36t-41 -15q-26 0 -42.5 14t-16.5 42q0 34 19 58.5t48 39.5t62 21 t60 6q38 0 78 -7t74 -27q28 -11 36.5 -26.5t8.5 -45.5v-320q0 -13 9.5 -18.5t20.5 -5.5t22.5 11t19.5 19l13 -19q-23 -28 -49 -45t-64 -17q-81 0 -94 85q-32 -41 -78 -64t-97 -23q-55 0 -89.5 31t-34.5 88zM149 1050q0 -38 16 -66t61 -28q32 0 54.5 21t33.5 49q9 23 8 64v66 q-26 0 -56.5 -3t-57.5 -13.5t-43 -32t-16 -57.5z" />
<glyph unicode="&#xab;" d="M154 412q0 11 27 34q38 34 71.5 66t65.5 65t65 69.5t71 78.5q9 9 17.5 3.5t8.5 -11.5q0 -23 -23.5 -66t-54.5 -90t-63 -88.5t-49 -60.5q17 -19 49 -61t63 -89t54.5 -90.5t23.5 -64.5q0 -6 -8.5 -11.5t-17.5 2.5q-38 43 -71 79t-65 68t-65 64t-72 69q-28 21 -27 34z M442 412q0 11 29 34q36 34 70.5 66t66.5 65t65 69.5t72 78.5q9 9 16 3.5t7 -11.5q0 -23 -23.5 -66t-54.5 -90t-63 -88.5t-49 -60.5q17 -19 49 -61t63 -89t54.5 -90.5t23.5 -64.5q0 -6 -7.5 -11.5t-15.5 2.5q-38 43 -71.5 79t-65.5 68t-66 64t-71 69q-30 23 -29 34z" />
<glyph unicode="&#xac;" d="M53 544v87h830v-535h-102v448h-728z" />
<glyph unicode="&#xad;" horiz-adv-x="787" d="M141 553v115h533v-115h-533z" />
<glyph unicode="&#xae;" horiz-adv-x="1401" d="M66 681q0 147 48 278t134.5 228t200.5 154.5t246 57.5t248.5 -54t204 -150t137.5 -226.5t50 -279.5q0 -151 -49 -281.5t-135 -228.5t-204 -153.5t-252 -55.5q-130 0 -245 56.5t-200.5 153.5t-134.5 226t-49 275zM130 681q0 -130 45 -246.5t121.5 -203t179 -137.5 t219.5 -51q119 0 224 49t183 135.5t122.5 202.5t44.5 251q0 134 -44.5 251.5t-121.5 205t-180.5 137.5t-222.5 50q-117 0 -222 -50t-181.5 -137.5t-121.5 -205t-45 -251.5zM335 314v27h117v713h-117v30h401q47 0 99 -4.5t93 -22.5t68.5 -53t27.5 -95q0 -49 -24.5 -82 t-62 -55.5t-82 -34.5t-87.5 -16v-4q68 -11 114 -34.5t70.5 -62t34 -91.5t9.5 -124q0 -15 2.5 -29.5t14 -25.5t35 -14t68.5 3v-25q-51 -17 -103 -17q-183 0 -183 179q0 70 -7.5 115t-31 71.5t-67 37t-118.5 10.5v-369h117v-27h-388zM606 745q53 2 98 2t79 12.5t53 43.5t19 95 q0 70 -17 103.5t-49 45t-79 9.5t-104 -2v-309z" />
<glyph unicode="&#xaf;" horiz-adv-x="614" d="M15 1267v100h593v-100h-593z" />
<glyph unicode="&#xb0;" horiz-adv-x="738" d="M92 1013q0 64 21 119.5t58.5 97t88.5 66.5t109 25t108 -25t87.5 -66.5t58.5 -97t21 -119.5t-21 -119.5t-58.5 -97t-87.5 -66t-108 -24.5t-109 24.5t-88.5 66t-58.5 97t-21 119.5zM164 1013q0 -47 17 -87.5t44 -71.5t64 -48t80 -17t79 17t64 48t44 71.5t16 87.5t-16 87.5 t-44 71.5t-65 49t-80 18t-79 -18t-64 -49t-44 -71.5t-16 -87.5z" />
<glyph unicode="&#xb1;" d="M64 0v92h809v-92h-809zM64 497v92h365v309h81v-309h363v-92h-363v-311h-81v311h-365z" />
<glyph unicode="&#xb2;" horiz-adv-x="552" d="M79 704q19 62 48 111t64 88.5t69 74.5t62 75.5t47 90t19 110.5q0 38 -6.5 70.5t-21 56t-38 36t-57.5 12.5q-21 0 -44 -11.5t-41 -31t-27.5 -41.5t-9.5 -46l-38 9q0 32 11.5 61.5t35 51t54.5 35.5t71 14q45 0 81.5 -9.5t63 -35.5t40.5 -69.5t14 -109.5q0 -51 -14 -89.5 t-40.5 -71.5t-58.5 -65t-66.5 -65t-68.5 -70.5t-66 -86.5h271l26 130h38l-26 -224h-392z" />
<glyph unicode="&#xb3;" horiz-adv-x="552" d="M75 838q0 13 2 25t9.5 23.5t18 19t25.5 7.5q45 0 45 -45q0 -47 -45 -47q-6 0 -11.5 -1t-5.5 -5q0 -21 12 -36t31 -24.5t38 -13t36 -3.5q45 0 76 13t49 37.5t24.5 59.5t6.5 82q0 28 -4 60t-19 59.5t-43 46t-73 18.5h-102v40h66q38 0 65 3.5t46 19.5t31 46.5t12 82.5 q0 60 -22.5 95t-86.5 35q-19 0 -40.5 -12t-36.5 -29t-24.5 -36t-9.5 -34l-38 10q0 21 11.5 47t33 46.5t49 34t68.5 13.5q34 0 68 -10.5t58.5 -32t40.5 -52.5t16 -75q0 -38 -10.5 -67t-26.5 -50.5t-36.5 -34.5t-41.5 -19q26 -6 50.5 -21t44.5 -41t33 -61t13 -84 q0 -55 -22.5 -99t-56.5 -74t-75.5 -43.5t-80.5 -13.5q-32 0 -63 7.5t-55.5 24.5t-37 44.5t-12.5 63.5z" />
<glyph unicode="&#xb4;" horiz-adv-x="614" d="M96 1007l235 271q23 26 52 57.5t61 31.5q28 0 51 -24.5t23 -53.5q0 -19 -20 -41.5t-35 -35.5l-277 -205h-90z" />
<glyph unicode="&#xb5;" horiz-adv-x="1026" d="M51 759v52q17 -2 32 -2h32q53 0 112 3t116 7v-653q0 -30 1.5 -53t11 -41.5t29.5 -28t57 -9.5q26 0 65 17t76.5 56.5t63 102.5t25.5 155v394h-141v52q21 -2 37.5 -2h39.5q60 0 117.5 3t117.5 7v-768h130v-51h-103q-55 0 -105 -2t-93 -13l-6 179q-28 -43 -56 -79t-65 -61.5 t-89.5 -40.5t-131.5 -15q-36 0 -36 -53q0 -17 4.5 -37.5t8.5 -41.5q15 -51 26.5 -90.5t15.5 -103.5q0 -38 -25.5 -65t-63.5 -27q-32 0 -56.5 23.5t-24.5 63.5q2 55 10.5 99t21.5 85q4 23 8.5 42.5t4.5 40.5q0 32 -11 60q-15 36 -24.5 90.5t-9.5 114.5v590h-122z" />
<glyph unicode="&#xb6;" horiz-adv-x="1141" d="M147 979q0 47 23.5 119.5t78 138.5t144 114t224.5 48h379v-87h-98v-1600h-77v1600h-207v-1600h-74v806h-9q-75 13 -144 47t-122.5 91t-85.5 137t-32 186z" />
<glyph unicode="&#xb7;" horiz-adv-x="1024" d="M384 700q0 28 10.5 52.5t29 41.5t38.5 27.5t41 10.5q45 0 81.5 -38.5t36.5 -93.5q0 -53 -36.5 -91.5t-81.5 -38.5q-43 0 -81 38t-38 92z" />
<glyph unicode="&#xb8;" horiz-adv-x="614" d="M115 -405l24 66q53 -23 108 -24q17 0 36.5 3.5t35.5 13t26.5 24.5t10.5 40q0 38 -23.5 59.5t-55.5 21.5q-26 0 -57 -10l-26 13l79 198h68l-49 -130q13 4 28 6t28 2q66 0 109.5 -36t43.5 -115q0 -55 -24.5 -88.5t-61.5 -50.5t-80 -22t-81 -5q-34 0 -70.5 9.5t-68.5 24.5z " />
<glyph unicode="&#xb9;" horiz-adv-x="552" d="M102 1246v43q45 34 91 76.5t97 87.5h41v-711h104v-38h-307v38h109v570q0 4 -2 7.5t-13 3.5q-4 0 -19 -7.5t-32 -20.5t-35.5 -24.5t-33.5 -24.5z" />
<glyph unicode="&#xba;" horiz-adv-x="691" d="M115 1141q0 51 19.5 98t51.5 82.5t73.5 56.5t86.5 21t86.5 -21t73.5 -56.5t51 -82t19 -98.5q0 -51 -19 -97t-51 -80t-74 -54t-86 -20q-45 0 -86.5 20t-73.5 54t-51.5 80t-19.5 97zM215 1141q0 -60 2.5 -102.5t15 -70t38.5 -41.5t75 -14q47 0 73.5 14t39 41.5t15 70.5 t2.5 102v17q0 47 -2.5 86.5t-14 68.5t-38 44t-75.5 15t-76 -16t-38.5 -45t-14 -68.5t-2.5 -88.5v-13z" />
<glyph unicode="&#xbb;" d="M154 107q0 21 23.5 64.5t54 90.5t62.5 89t49 61q-17 19 -49 60.5t-62.5 88.5t-54 89.5t-23.5 66.5q0 6 7.5 11.5t15.5 -3.5q38 -43 71.5 -79t65.5 -69t65 -65t71 -66q30 -23 30 -34t-30 -34q-38 -36 -71 -68.5t-65 -64.5t-65.5 -68t-71.5 -79q-9 -9 -16 -3.5t-7 12.5z M442 107q0 21 23.5 64.5t54 90.5t62.5 89t49 61q-17 19 -49 60.5t-62.5 88.5t-54 89.5t-23.5 66.5q0 6 8.5 11.5t16.5 -3.5q38 -43 71.5 -79t65.5 -69t64 -65t70 -66q30 -23 30 -34q0 -13 -30 -34q-38 -36 -70 -68.5t-64 -64.5t-65 -68t-72 -79q-9 -9 -17 -3.5t-8 12.5z" />
<glyph unicode="&#xbc;" horiz-adv-x="1382" d="M26 1150v45q49 41 102 88.5t111 103.5h45v-813h119v-45h-350v45h122v646q0 6 -1 10.5t-12 4.5q-9 0 -24.5 -9.5t-35 -22.5t-39.5 -27.5t-37 -25.5zM269 0l825 1534h62l-821 -1534h-66zM804 292l378 591h57l-332 -514h219v322h107v-322h105v-77h-105v-247h105v-45h-316v45 h104v247h-322z" />
<glyph unicode="&#xbd;" horiz-adv-x="1382" d="M26 1150v45q49 41 102 88.5t111 103.5h45v-813h119v-45h-350v45h122v646q0 6 -1 10.5t-12 4.5q-9 0 -24.5 -9.5t-35 -22.5t-39.5 -27.5t-37 -25.5zM269 0l825 1534h62l-821 -1534h-66zM855 0q23 70 58.5 124.5t77.5 100.5t83.5 86.5t75.5 86.5t55.5 101.5t21.5 127.5 q0 45 -7.5 81.5t-24.5 62t-45 40.5t-71 15q-26 0 -52 -13t-47.5 -34.5t-34.5 -48t-13 -54.5l-47 11q0 36 16 69t43 59t65 42t88 16q51 0 95.5 -12t75.5 -42t49 -79t18 -126q0 -55 -18 -97.5t-49 -82t-69 -76t-80 -74t-83.5 -81t-75.5 -96.5h322l30 149h47l-30 -256h-474z " />
<glyph unicode="&#xbe;" horiz-adv-x="1382" d="M28 676q0 13 3 27t10.5 26.5t20.5 21t32 8.5q55 0 55 -51q0 -55 -55 -55h-12.5t-6.5 -7q0 -23 13.5 -40t35 -28t46 -15t45.5 -4q53 0 89.5 15t59 42.5t31 68t8.5 94.5q0 32 -5 68t-23.5 67t-51.5 52.5t-88 21.5h-122v47h79q45 0 79 4t56.5 21t35 52.5t12.5 94.5 q0 66 -27.5 107t-100.5 41q-26 0 -50 -13t-42 -32t-30 -40.5t-12 -40.5l-45 13q0 23 13 52t37.5 52.5t59.5 39.5t82 16q43 0 82.5 -13t70.5 -36.5t50 -59.5t19 -86q0 -45 -12.5 -77.5t-32 -56t-44 -37.5t-47.5 -25q28 -6 57.5 -23t53 -45t38.5 -69.5t15 -96.5 q0 -66 -25.5 -115.5t-67.5 -82.5t-92 -50t-97 -17q-38 0 -74.5 9.5t-65 29t-44.5 50t-16 75.5zM269 0l825 1534h62l-821 -1534h-66zM804 292l378 591h57l-332 -514h219v322h107v-322h105v-77h-105v-247h105v-45h-316v45h104v247h-322z" />
<glyph unicode="&#xbf;" horiz-adv-x="817" d="M109 -145q0 66 18 119.5t48 98t70.5 82t85.5 75.5t72.5 62t41.5 47.5t19 55.5t5 91h45q11 -75 15 -127t1 -93.5t-12.5 -76.5t-33.5 -76q-11 -17 -31 -42.5t-41.5 -50t-42.5 -46t-34 -29.5q-17 -9 -36.5 -29.5t-36.5 -48t-28.5 -57.5t-11.5 -57q0 -47 18 -82.5t49 -59 t67.5 -35t74.5 -11.5q36 0 69 11.5t59 27.5t42 33t16 26q0 19 -16 26.5t-34 18.5q-19 9 -31.5 27t-12.5 60q0 49 25.5 72.5t68.5 23.5q51 0 73.5 -36t22.5 -88q0 -49 -25 -93.5t-64 -78.5t-90.5 -54.5t-106.5 -20.5q-66 0 -124 24.5t-100.5 68.5t-68 105.5t-25.5 136.5z M371 813q0 28 11 52.5t28 41.5t38.5 27.5t40.5 10.5q45 0 81 -38.5t36 -93.5q0 -53 -36.5 -91.5t-80.5 -38.5q-43 0 -80.5 38t-37.5 92z" />
<glyph unicode="&#xc0;" horiz-adv-x="1267" d="M11 0v77h55q43 0 67.5 19t47.5 83l408 1295h60l456 -1397h154v-77h-525v77h171l-124 394h-425l-98 -313q-4 -19 -6 -35t4 -26t23.5 -15t53.5 -5h89v-77h-411zM380 548h379l-196 557zM403 1845q0 30 23.5 54.5t51.5 24.5q30 0 59.5 -32t53.5 -57l235 -271h-90l-277 205 q-15 13 -35.5 35t-20.5 41z" />
<glyph unicode="&#xc1;" horiz-adv-x="1267" d="M11 0v77h55q43 0 67.5 19t47.5 83l408 1295h60l456 -1397h154v-77h-525v77h171l-124 394h-425l-98 -313q-4 -19 -6 -35t4 -26t23.5 -15t53.5 -5h89v-77h-411zM380 548h379l-196 557zM459 1564l234 271q23 26 53.5 57.5t59.5 31.5q28 0 51.5 -24.5t23.5 -54.5 q0 -19 -19 -41.5t-36 -34.5l-278 -205h-89z" />
<glyph unicode="&#xc2;" horiz-adv-x="1267" d="M11 0v77h55q43 0 67.5 19t47.5 83l408 1295h60l456 -1397h154v-77h-525v77h171l-124 394h-425l-98 -313q-4 -19 -6 -35t4 -26t23.5 -15t53.5 -5h89v-77h-411zM322 1538l228 346h128l229 -346h-79l-211 211l-216 -211h-79zM380 548h379l-196 557z" />
<glyph unicode="&#xc3;" horiz-adv-x="1267" d="M11 0v77h55q43 0 67.5 19t47.5 83l408 1295h60l456 -1397h154v-77h-525v77h171l-124 394h-425l-98 -313q-4 -19 -6 -35t4 -26t23.5 -15t53.5 -5h89v-77h-411zM299 1530q15 90 65 158t139 68q38 0 73.5 -16t67.5 -33q36 -19 67 -34t61 -15q38 0 60.5 34t33.5 70h64 q-11 -45 -27 -86.5t-41.5 -73.5t-59.5 -51t-81 -19q-36 0 -73.5 16t-71.5 33q-32 19 -63 34t-54 15q-43 0 -66.5 -29t-34.5 -71h-59zM380 548h379l-196 557z" />
<glyph unicode="&#xc4;" horiz-adv-x="1267" d="M11 0v77h55q43 0 67.5 19t47.5 83l408 1295h60l456 -1397h154v-77h-525v77h171l-124 394h-425l-98 -313q-4 -19 -6 -35t4 -26t23.5 -15t53.5 -5h89v-77h-411zM329 1653q0 45 29.5 77t70.5 32t69.5 -32t28.5 -77t-28.5 -76.5t-69.5 -31.5t-70.5 32t-29.5 76zM380 548h379 l-196 557zM702 1653q0 45 30 77t70 32q38 0 67 -32t29 -77t-29 -76.5t-67 -31.5q-41 0 -70.5 32t-29.5 76z" />
<glyph unicode="&#xc5;" horiz-adv-x="1267" d="M11 0v77h55q43 0 67.5 19t47.5 83l408 1295h60l456 -1397h154v-77h-525v77h171l-124 394h-425l-98 -313q-4 -19 -6 -35t4 -26t23.5 -15t53.5 -5h89v-77h-411zM380 548h379l-196 557zM429 1677q0 38 15 71t40.5 60t59.5 40.5t73 13.5q36 0 70 -13.5t60.5 -39.5t41.5 -60 t15 -72t-15 -72.5t-41.5 -61t-59.5 -40.5t-71 -14t-72.5 14t-60 40.5t-40.5 60.5t-15 73zM503 1677q0 -45 33.5 -79t80.5 -34q45 0 79 34t34 79q0 47 -34 80t-79 33t-79.5 -34t-34.5 -79z" />
<glyph unicode="&#xc6;" horiz-adv-x="1843" d="M11 0v77h55q21 0 40.5 12.5t35.5 31t25.5 35.5t13.5 23l687 1186h-151v77h1000l24 -380h-77q0 85 -24.5 143t-68.5 93t-104.5 51t-131.5 16h-281v-593h136q70 0 111 21.5t62.5 56.5t26.5 80t5 94h77v-570h-77q0 58 -5 103t-26.5 75.5t-62 46.5t-113.5 16h-134v-618h247 q107 0 188 10.5t135.5 49t82 113t27.5 200.5h77v-450h-1094v77h160v394h-435l-184 -313q-15 -30 -5.5 -55.5t80.5 -25.5h89v-77h-411zM478 548h399v666z" />
<glyph unicode="&#xc7;" horiz-adv-x="1228" d="M115 676q0 122 40.5 251t114 233.5t178.5 171.5t233 67q73 0 142 -25.5t131 -80.5l100 85h28v-395h-37q-23 166 -121 265.5t-246 99.5q-109 0 -174 -49t-100 -125.5t-45.5 -169.5t-10.5 -183v-232q0 -81 5 -180.5t35 -185.5t93 -144t180 -58q92 0 158 29t114 81t79 122.5 t53 153.5h32v-420h-26l-102 98q-62 -60 -145.5 -87.5t-157.5 -27.5h-16.5t-30.5 2l-39 -102q19 4 39.5 6t37.5 2q55 0 93.5 -36t38.5 -115q0 -55 -22 -88.5t-55.5 -50.5t-74 -22t-74.5 -5q-30 0 -61 8.5t-60 20.5l19 60q28 -13 94 -13q19 0 42.5 3.5t42.5 13t32 24.5t13 40 q0 38 -29 59.5t-71 21.5q-15 0 -36.5 -2t-32.5 -6l-13 6l75 184q-102 23 -186.5 91.5t-146.5 164.5t-96 210t-34 229z" />
<glyph unicode="&#xc8;" horiz-adv-x="1230" d="M30 0v77h160v1288h-160v77h1000l24 -380h-77q0 85 -24.5 143t-68 93t-104.5 51t-131 16h-282v-593h136q70 0 111 21.5t62.5 56.5t26.5 81t5 93h77v-570h-77q0 58 -5 103t-26.5 75.5t-62 46.5t-113.5 16h-134v-618h247q107 0 188 10.5t135.5 49t82 113t27.5 200.5h77v-450 h-1094zM403 1845q0 30 23.5 54.5t51.5 24.5q30 0 59.5 -32t53.5 -57l235 -271h-90l-277 205q-15 13 -35.5 35t-20.5 41z" />
<glyph unicode="&#xc9;" horiz-adv-x="1230" d="M30 0v77h160v1288h-160v77h1000l24 -380h-77q0 85 -24.5 143t-68 93t-104.5 51t-131 16h-282v-593h136q70 0 111 21.5t62.5 56.5t26.5 81t5 93h77v-570h-77q0 58 -5 103t-26.5 75.5t-62 46.5t-113.5 16h-134v-618h247q107 0 188 10.5t135.5 49t82 113t27.5 200.5h77v-450 h-1094zM459 1564l234 271q23 26 53.5 57.5t59.5 31.5q28 0 51.5 -24.5t23.5 -54.5q0 -19 -19 -41.5t-36 -34.5l-278 -205h-89z" />
<glyph unicode="&#xca;" horiz-adv-x="1230" d="M30 0v77h160v1288h-160v77h1000l24 -380h-77q0 85 -24.5 143t-68 93t-104.5 51t-131 16h-282v-593h136q70 0 111 21.5t62.5 56.5t26.5 81t5 93h77v-570h-77q0 58 -5 103t-26.5 75.5t-62 46.5t-113.5 16h-134v-618h247q107 0 188 10.5t135.5 49t82 113t27.5 200.5h77v-450 h-1094zM322 1538l228 346h128l229 -346h-79l-211 211l-216 -211h-79z" />
<glyph unicode="&#xcb;" horiz-adv-x="1230" d="M30 0v77h160v1288h-160v77h1000l24 -380h-77q0 85 -24.5 143t-68 93t-104.5 51t-131 16h-282v-593h136q70 0 111 21.5t62.5 56.5t26.5 81t5 93h77v-570h-77q0 58 -5 103t-26.5 75.5t-62 46.5t-113.5 16h-134v-618h247q107 0 188 10.5t135.5 49t82 113t27.5 200.5h77v-450 h-1094zM329 1653q0 45 29.5 77t70.5 32t69.5 -32t28.5 -77t-28.5 -76.5t-69.5 -31.5t-70.5 32t-29.5 76zM702 1653q0 45 30 77t70 32q38 0 67 -32t29 -77t-29 -76.5t-67 -31.5q-41 0 -70.5 32t-29.5 76z" />
<glyph unicode="&#xcc;" horiz-adv-x="595" d="M47 0v77h160v1288h-160v77h501v-77h-162v-1288h162v-77h-501zM87 1845q0 30 23.5 54.5t51.5 24.5q30 0 59.5 -32t53.5 -57l235 -271h-90l-277 205q-15 13 -35.5 35t-20.5 41z" />
<glyph unicode="&#xcd;" horiz-adv-x="595" d="M47 0v77h160v1288h-160v77h501v-77h-162v-1288h162v-77h-501zM143 1564l234 271q23 26 53.5 57.5t59.5 31.5q28 0 51.5 -24.5t23.5 -54.5q0 -19 -19 -41.5t-36 -34.5l-278 -205h-89z" />
<glyph unicode="&#xce;" horiz-adv-x="595" d="M6 1538l228 346h128l229 -346h-79l-211 211l-216 -211h-79zM47 0v77h160v1288h-160v77h501v-77h-162v-1288h162v-77h-501z" />
<glyph unicode="&#xcf;" horiz-adv-x="595" d="M13 1653q0 45 29.5 77t70.5 32t69.5 -32t28.5 -77t-28.5 -76.5t-69.5 -31.5t-70.5 32t-29.5 76zM47 0v77h160v1288h-160v77h501v-77h-162v-1288h162v-77h-501zM386 1653q0 45 30 77t70 32q38 0 67 -32t29 -77t-29 -76.5t-67 -31.5q-41 0 -70.5 32t-29.5 76z" />
<glyph unicode="&#xd0;" horiz-adv-x="1331" d="M68 740v66h188v510h-181v51h482q181 0 306 -56.5t202.5 -151t112 -218.5t34.5 -260q0 -134 -30 -257t-108 -233t-214.5 -150.5t-366.5 -40.5h-418v51h181v689h-188zM442 51h64q154 0 251.5 23.5t155.5 96t79 207t21 358.5q0 186 -22 299t-81 176t-163.5 84t-266.5 21h-38 v-510h262v-66h-262v-689z" />
<glyph unicode="&#xd1;" horiz-adv-x="1369" d="M19 0v77h43q64 0 89.5 16t25.5 78v1194h-158v77h408l687 -1054v894q0 49 -16 66t-78 17h-83v77h416v-77h-67q-62 0 -79 -17t-17 -66v-1295h-66l-870 1336v-1152q0 -62 25.5 -78t87.5 -16h70v-77h-418zM337 1530q15 90 65 158t139 68q38 0 73.5 -16t67.5 -33 q36 -19 67 -34t61 -15q38 0 60.5 34t33.5 70h64q-11 -45 -27 -86.5t-41.5 -73.5t-59.5 -51t-81 -19q-36 0 -73.5 16t-71.5 33q-32 19 -63 34t-54 15q-43 0 -66.5 -29t-34.5 -71h-59z" />
<glyph unicode="&#xd2;" horiz-adv-x="1292" d="M83 721q0 158 45 295.5t121.5 239t179 160t217.5 58.5t217.5 -58.5t179.5 -160t122 -239t45 -295.5t-45 -295.5t-122 -239t-179 -160t-218 -58.5q-115 0 -217.5 58.5t-179 160t-121.5 239t-45 295.5zM286 721q0 -64 7.5 -138.5t24.5 -149.5t43.5 -145t67 -124.5t94 -86.5 t123.5 -32q105 0 174.5 70.5t111 174t58.5 220.5t17 211t-17 211.5t-58.5 221t-111 173.5t-174.5 70t-174 -70t-110.5 -173.5t-58.5 -221t-17 -211.5zM441 1845q0 30 23.5 54.5t51.5 24.5q30 0 59.5 -32t53.5 -57l235 -271h-90l-277 205q-15 13 -35.5 35t-20.5 41z" />
<glyph unicode="&#xd3;" horiz-adv-x="1292" d="M83 721q0 158 45 295.5t121.5 239t179 160t217.5 58.5t217.5 -58.5t179.5 -160t122 -239t45 -295.5t-45 -295.5t-122 -239t-179 -160t-218 -58.5q-115 0 -217.5 58.5t-179 160t-121.5 239t-45 295.5zM286 721q0 -64 7.5 -138.5t24.5 -149.5t43.5 -145t67 -124.5t94 -86.5 t123.5 -32q105 0 174.5 70.5t111 174t58.5 220.5t17 211t-17 211.5t-58.5 221t-111 173.5t-174.5 70t-174 -70t-110.5 -173.5t-58.5 -221t-17 -211.5zM497 1564l234 271q23 26 53.5 57.5t59.5 31.5q28 0 51.5 -24.5t23.5 -54.5q0 -19 -19 -41.5t-36 -34.5l-278 -205h-89z " />
<glyph unicode="&#xd4;" horiz-adv-x="1292" d="M83 721q0 158 45 295.5t121.5 239t179 160t217.5 58.5t217.5 -58.5t179.5 -160t122 -239t45 -295.5t-45 -295.5t-122 -239t-179 -160t-218 -58.5q-115 0 -217.5 58.5t-179 160t-121.5 239t-45 295.5zM286 721q0 -64 7.5 -138.5t24.5 -149.5t43.5 -145t67 -124.5t94 -86.5 t123.5 -32q105 0 174.5 70.5t111 174t58.5 220.5t17 211t-17 211.5t-58.5 221t-111 173.5t-174.5 70t-174 -70t-110.5 -173.5t-58.5 -221t-17 -211.5zM360 1538l228 346h128l229 -346h-79l-211 211l-216 -211h-79z" />
<glyph unicode="&#xd5;" horiz-adv-x="1292" d="M83 721q0 158 45 295.5t121.5 239t179 160t217.5 58.5t217.5 -58.5t179.5 -160t122 -239t45 -295.5t-45 -295.5t-122 -239t-179 -160t-218 -58.5q-115 0 -217.5 58.5t-179 160t-121.5 239t-45 295.5zM286 721q0 -64 7.5 -138.5t24.5 -149.5t43.5 -145t67 -124.5t94 -86.5 t123.5 -32q105 0 174.5 70.5t111 174t58.5 220.5t17 211t-17 211.5t-58.5 221t-111 173.5t-174.5 70t-174 -70t-110.5 -173.5t-58.5 -221t-17 -211.5zM337 1530q15 90 65 158t139 68q38 0 73.5 -16t67.5 -33q36 -19 67 -34t61 -15q38 0 60.5 34t33.5 70h64 q-11 -45 -27 -86.5t-41.5 -73.5t-59.5 -51t-81 -19q-36 0 -73.5 16t-71.5 33q-32 19 -63 34t-54 15q-43 0 -66.5 -29t-34.5 -71h-59z" />
<glyph unicode="&#xd6;" horiz-adv-x="1292" d="M83 721q0 158 45 295.5t121.5 239t179 160t217.5 58.5t217.5 -58.5t179.5 -160t122 -239t45 -295.5t-45 -295.5t-122 -239t-179 -160t-218 -58.5q-115 0 -217.5 58.5t-179 160t-121.5 239t-45 295.5zM286 721q0 -64 7.5 -138.5t24.5 -149.5t43.5 -145t67 -124.5t94 -86.5 t123.5 -32q105 0 174.5 70.5t111 174t58.5 220.5t17 211t-17 211.5t-58.5 221t-111 173.5t-174.5 70t-174 -70t-110.5 -173.5t-58.5 -221t-17 -211.5zM367 1653q0 45 29.5 77t70.5 32t69.5 -32t28.5 -77t-28.5 -76.5t-69.5 -31.5t-70.5 32t-29.5 76zM740 1653q0 45 30 77 t70 32q38 0 67 -32t29 -77t-29 -76.5t-67 -31.5q-41 0 -70.5 32t-29.5 76z" />
<glyph unicode="&#xd7;" d="M70 77l340 377l-337 376l51 57l337 -371l337 374l53 -60l-339 -376l341 -377l-53 -60l-339 378l-337 -378z" />
<glyph unicode="&#xd8;" horiz-adv-x="1331" d="M102 721q0 158 45 295.5t122 239t179 160t218 58.5q75 0 144 -25.5t131 -72.5l89 183h62l-106 -219q109 -102 176 -263.5t67 -355.5q0 -158 -45 -295.5t-121.5 -239t-179 -160t-217.5 -58.5q-81 0 -156 29t-141 82l-98 -203h-66l119 246q-102 102 -162 256.5t-60 342.5z M305 721q0 -51 4.5 -109.5t15 -119.5t27.5 -121t41 -113l494 1011q-41 58 -95 93t-126 35q-105 0 -174.5 -70t-111 -173.5t-58.5 -221t-17 -211.5zM427 194q43 -68 100.5 -108.5t138.5 -40.5q105 0 174 70.5t110.5 174t58.5 220.5t17 211q0 53 -5.5 116t-18 128t-32 128 t-46.5 119z" />
<glyph unicode="&#xd9;" horiz-adv-x="1326" d="M19 1367v75h536v-75h-190v-1017q0 -81 26.5 -138.5t69 -94t99.5 -54.5t114 -18q85 0 158 23.5t125 72.5t81 125.5t29 183.5v804q0 68 -26 90.5t-85 22.5h-101v75h470v-75h-83q-58 0 -78.5 -24.5t-20.5 -90.5v-825q0 -122 -40.5 -209.5t-106.5 -143t-151.5 -81 t-172.5 -25.5q-111 0 -200.5 18t-153.5 65t-98 127t-34 204v985h-167zM441 1845q0 30 23.5 54.5t51.5 24.5q30 0 59.5 -32t53.5 -57l235 -271h-90l-277 205q-15 13 -35.5 35t-20.5 41z" />
<glyph unicode="&#xda;" horiz-adv-x="1326" d="M19 1367v75h536v-75h-190v-1017q0 -81 26.5 -138.5t69 -94t99.5 -54.5t114 -18q85 0 158 23.5t125 72.5t81 125.5t29 183.5v804q0 68 -26 90.5t-85 22.5h-101v75h470v-75h-83q-58 0 -78.5 -24.5t-20.5 -90.5v-825q0 -122 -40.5 -209.5t-106.5 -143t-151.5 -81 t-172.5 -25.5q-111 0 -200.5 18t-153.5 65t-98 127t-34 204v985h-167zM497 1564l234 271q23 26 53.5 57.5t59.5 31.5q28 0 51.5 -24.5t23.5 -54.5q0 -19 -19 -41.5t-36 -34.5l-278 -205h-89z" />
<glyph unicode="&#xdb;" horiz-adv-x="1326" d="M19 1367v75h536v-75h-190v-1017q0 -81 26.5 -138.5t69 -94t99.5 -54.5t114 -18q85 0 158 23.5t125 72.5t81 125.5t29 183.5v804q0 68 -26 90.5t-85 22.5h-101v75h470v-75h-83q-58 0 -78.5 -24.5t-20.5 -90.5v-825q0 -122 -40.5 -209.5t-106.5 -143t-151.5 -81 t-172.5 -25.5q-111 0 -200.5 18t-153.5 65t-98 127t-34 204v985h-167zM360 1538l228 346h128l229 -346h-79l-211 211l-216 -211h-79z" />
<glyph unicode="&#xdc;" horiz-adv-x="1326" d="M19 1367v75h536v-75h-190v-1017q0 -81 26.5 -138.5t69 -94t99.5 -54.5t114 -18q85 0 158 23.5t125 72.5t81 125.5t29 183.5v804q0 68 -26 90.5t-85 22.5h-101v75h470v-75h-83q-58 0 -78.5 -24.5t-20.5 -90.5v-825q0 -122 -40.5 -209.5t-106.5 -143t-151.5 -81 t-172.5 -25.5q-111 0 -200.5 18t-153.5 65t-98 127t-34 204v985h-167zM367 1653q0 45 29.5 77t70.5 32t69.5 -32t28.5 -77t-28.5 -76.5t-69.5 -31.5t-70.5 32t-29.5 76zM740 1653q0 45 30 77t70 32q38 0 67 -32t29 -77t-29 -76.5t-67 -31.5q-41 0 -70.5 32t-29.5 76z" />
<glyph unicode="&#xdd;" horiz-adv-x="1233" d="M19 1365v77h519v-77h-135l280 -710l226 531q23 55 35 91.5t12 60.5q0 15 -18.5 21t-67.5 6h-72v77h418v-77h-77q-55 0 -75.5 -26.5t-37.5 -67.5l-331 -742v-452h188v-77h-557v77h188v448l-331 840h-164zM574 1564l234 271q23 26 53.5 57.5t59.5 31.5q28 0 51.5 -24.5 t23.5 -54.5q0 -19 -19 -41.5t-36 -34.5l-278 -205h-89z" />
<glyph unicode="&#xde;" horiz-adv-x="1228" d="M115 0v51h182v1265h-182v51h538v-51h-196v-173h215q81 0 165.5 -13.5t153.5 -53t113 -114.5t44 -196q0 -107 -41.5 -178.5t-105.5 -114t-143 -60.5t-152 -18h-249v-344h196v-51h-538zM457 446h256q79 0 129 26.5t77.5 71.5t37 102.5t9.5 121.5q0 55 -6 113t-32 105 t-77 76.5t-138 29.5h-256v-646z" />
<glyph unicode="&#xdf;" horiz-adv-x="1026" d="M66 0v51h130v937q0 154 46 238t105.5 122.5t113 44.5t70.5 6q62 0 122 -20t106.5 -60.5t75.5 -101.5t29 -140q0 -128 -69.5 -203.5t-167.5 -105.5q132 -30 216.5 -126t84.5 -262q0 -81 -20.5 -151.5t-62 -125t-106.5 -85.5t-157 -31q-23 0 -46.5 13t-41.5 35.5t-29 52 t-11 63.5q0 45 22.5 75t52.5 30t52.5 -21.5t22.5 -68.5q0 -43 -11 -58.5t-21 -22.5q-4 -4 -7.5 -6t-7.5 -6l-7 -7q0 -19 21.5 -27.5t45.5 -8.5q23 0 46.5 5.5t41.5 36t30 99t12 194.5q0 117 -14 189.5t-39.5 113t-62 55.5t-81.5 19q-17 0 -37 3.5t-20 20.5q0 13 8.5 18t20 6 t24.5 1t21 3q26 4 49.5 11.5t42.5 33t30 76.5t11 141v11q0 51 -3.5 103t-20.5 94t-53 67.5t-102 25.5q-102 0 -136.5 -54.5t-34.5 -146.5v-1156h-284z" />
<glyph unicode="&#xe0;" horiz-adv-x="891" d="M77 211q0 90 44.5 148.5t113 92.5t147.5 48t149 14h32v220q0 28 -12.5 45t-34 26.5t-46 13.5t-50.5 4q-21 0 -50 -3t-55.5 -11.5t-45.5 -21.5t-19 -32q0 -11 10.5 -17t23.5 -15.5t23.5 -28t10.5 -52.5q0 -43 -29 -71.5t-78 -28.5t-74.5 34t-25.5 92q0 43 23.5 84.5 t65 75.5t98 54t122.5 20q49 0 101.5 -16t95 -48t69.5 -80t27 -109v-519q0 -23 8.5 -43.5t46.5 -20.5q36 0 57.5 20.5t40.5 52.5l47 -17q-36 -64 -86 -106t-106 -42q-49 0 -90.5 34.5t-58.5 85.5q-68 -68 -129 -94t-140 -26q-109 0 -167.5 61t-58.5 176zM237 241q0 -36 4 -68 t19 -54.5t42 -35.5t69 -13q53 0 89.5 15t59 36.5t33 41.5t10.5 33v237h-28q-51 0 -104 -4t-96 -22.5t-70.5 -57t-27.5 -108.5zM237 1352q0 30 23.5 54.5t51.5 24.5q30 0 59.5 -32t53.5 -57l235 -271h-90l-277 205q-15 13 -35.5 35t-20.5 41z" />
<glyph unicode="&#xe1;" horiz-adv-x="891" d="M77 211q0 90 44.5 148.5t113 92.5t147.5 48t149 14h32v220q0 28 -12.5 45t-34 26.5t-46 13.5t-50.5 4q-21 0 -50 -3t-55.5 -11.5t-45.5 -21.5t-19 -32q0 -11 10.5 -17t23.5 -15.5t23.5 -28t10.5 -52.5q0 -43 -29 -71.5t-78 -28.5t-74.5 34t-25.5 92q0 43 23.5 84.5 t65 75.5t98 54t122.5 20q49 0 101.5 -16t95 -48t69.5 -80t27 -109v-519q0 -23 8.5 -43.5t46.5 -20.5q36 0 57.5 20.5t40.5 52.5l47 -17q-36 -64 -86 -106t-106 -42q-49 0 -90.5 34.5t-58.5 85.5q-68 -68 -129 -94t-140 -26q-109 0 -167.5 61t-58.5 176zM237 241q0 -36 4 -68 t19 -54.5t42 -35.5t69 -13q53 0 89.5 15t59 36.5t33 41.5t10.5 33v237h-28q-51 0 -104 -4t-96 -22.5t-70.5 -57t-27.5 -108.5zM293 1071l234 271q23 26 53.5 57.5t59.5 31.5q28 0 51.5 -24.5t23.5 -54.5q0 -19 -19 -41.5t-36 -34.5l-278 -205h-89z" />
<glyph unicode="&#xe2;" horiz-adv-x="891" d="M77 211q0 90 44.5 148.5t113 92.5t147.5 48t149 14h32v220q0 28 -12.5 45t-34 26.5t-46 13.5t-50.5 4q-21 0 -50 -3t-55.5 -11.5t-45.5 -21.5t-19 -32q0 -11 10.5 -17t23.5 -15.5t23.5 -28t10.5 -52.5q0 -43 -29 -71.5t-78 -28.5t-74.5 34t-25.5 92q0 43 23.5 84.5 t65 75.5t98 54t122.5 20q49 0 101.5 -16t95 -48t69.5 -80t27 -109v-519q0 -23 8.5 -43.5t46.5 -20.5q36 0 57.5 20.5t40.5 52.5l47 -17q-36 -64 -86 -106t-106 -42q-49 0 -90.5 34.5t-58.5 85.5q-68 -68 -129 -94t-140 -26q-109 0 -167.5 61t-58.5 176zM156 1045l228 346 h128l229 -346h-79l-211 211l-216 -211h-79zM237 241q0 -36 4 -68t19 -54.5t42 -35.5t69 -13q53 0 89.5 15t59 36.5t33 41.5t10.5 33v237h-28q-51 0 -104 -4t-96 -22.5t-70.5 -57t-27.5 -108.5z" />
<glyph unicode="&#xe3;" horiz-adv-x="891" d="M77 211q0 90 44.5 148.5t113 92.5t147.5 48t149 14h32v220q0 28 -12.5 45t-34 26.5t-46 13.5t-50.5 4q-21 0 -50 -3t-55.5 -11.5t-45.5 -21.5t-19 -32q0 -11 10.5 -17t23.5 -15.5t23.5 -28t10.5 -52.5q0 -43 -29 -71.5t-78 -28.5t-74.5 34t-25.5 92q0 43 23.5 84.5 t65 75.5t98 54t122.5 20q49 0 101.5 -16t95 -48t69.5 -80t27 -109v-519q0 -23 8.5 -43.5t46.5 -20.5q36 0 57.5 20.5t40.5 52.5l47 -17q-36 -64 -86 -106t-106 -42q-49 0 -90.5 34.5t-58.5 85.5q-68 -68 -129 -94t-140 -26q-109 0 -167.5 61t-58.5 176zM133 1080 q15 90 65 158t139 68q38 0 73.5 -16t67.5 -33q36 -19 67 -34t61 -15q38 0 60.5 34t33.5 70h64q-11 -45 -27 -86.5t-41.5 -73.5t-59.5 -51t-81 -19q-36 0 -73.5 16t-71.5 33q-32 19 -63 34t-54 15q-43 0 -66.5 -29t-34.5 -71h-59zM237 241q0 -36 4 -68t19 -54.5t42 -35.5 t69 -13q53 0 89.5 15t59 36.5t33 41.5t10.5 33v237h-28q-51 0 -104 -4t-96 -22.5t-70.5 -57t-27.5 -108.5z" />
<glyph unicode="&#xe4;" horiz-adv-x="891" d="M77 211q0 90 44.5 148.5t113 92.5t147.5 48t149 14h32v220q0 28 -12.5 45t-34 26.5t-46 13.5t-50.5 4q-21 0 -50 -3t-55.5 -11.5t-45.5 -21.5t-19 -32q0 -11 10.5 -17t23.5 -15.5t23.5 -28t10.5 -52.5q0 -43 -29 -71.5t-78 -28.5t-74.5 34t-25.5 92q0 43 23.5 84.5 t65 75.5t98 54t122.5 20q49 0 101.5 -16t95 -48t69.5 -80t27 -109v-519q0 -23 8.5 -43.5t46.5 -20.5q36 0 57.5 20.5t40.5 52.5l47 -17q-36 -64 -86 -106t-106 -42q-49 0 -90.5 34.5t-58.5 85.5q-68 -68 -129 -94t-140 -26q-109 0 -167.5 61t-58.5 176zM163 1160 q0 45 29.5 77t70.5 32t69.5 -32t28.5 -77t-28.5 -76.5t-69.5 -31.5t-70.5 32t-29.5 76zM237 241q0 -36 4 -68t19 -54.5t42 -35.5t69 -13q53 0 89.5 15t59 36.5t33 41.5t10.5 33v237h-28q-51 0 -104 -4t-96 -22.5t-70.5 -57t-27.5 -108.5zM536 1160q0 45 30 77t70 32 q38 0 67 -32t29 -77t-29 -76.5t-67 -31.5q-41 0 -70.5 32t-29.5 76z" />
<glyph unicode="&#xe5;" horiz-adv-x="891" d="M77 211q0 90 44.5 148.5t113 92.5t147.5 48t149 14h32v220q0 28 -12.5 45t-34 26.5t-46 13.5t-50.5 4q-21 0 -50 -3t-55.5 -11.5t-45.5 -21.5t-19 -32q0 -11 10.5 -17t23.5 -15.5t23.5 -28t10.5 -52.5q0 -43 -29 -71.5t-78 -28.5t-74.5 34t-25.5 92q0 43 23.5 84.5 t65 75.5t98 54t122.5 20q49 0 101.5 -16t95 -48t69.5 -80t27 -109v-519q0 -23 8.5 -43.5t46.5 -20.5q36 0 57.5 20.5t40.5 52.5l47 -17q-36 -64 -86 -106t-106 -42q-49 0 -90.5 34.5t-58.5 85.5q-68 -68 -129 -94t-140 -26q-109 0 -167.5 61t-58.5 176zM237 241q0 -36 4 -68 t19 -54.5t42 -35.5t69 -13q53 0 89.5 15t59 36.5t33 41.5t10.5 33v237h-28q-51 0 -104 -4t-96 -22.5t-70.5 -57t-27.5 -108.5zM263 1184q0 38 15 71t40.5 60t59.5 40.5t73 13.5q36 0 70 -13.5t60.5 -39.5t41.5 -60t15 -72t-15 -72.5t-41.5 -61t-59.5 -40.5t-71 -14t-72.5 14 t-60 40.5t-40.5 60.5t-15 73zM337 1184q0 -45 33.5 -79t80.5 -34q45 0 79 34t34 79q0 47 -34 80t-79 33t-79.5 -34t-34.5 -79z" />
<glyph unicode="&#xe6;" horiz-adv-x="1228" d="M62 188q0 137 117.5 205t323.5 68h20v241q0 21 -15 37t-37.5 25.5t-48 14t-44.5 4.5q-13 0 -38.5 -3t-51.5 -12t-45 -20.5t-19 -26.5q0 -11 5.5 -16t11.5 -13.5t11.5 -24.5t5.5 -44q0 -36 -17 -65t-60 -29q-32 0 -49 26.5t-17 73.5q0 62 43 103.5t85 61.5q43 17 81.5 23 t80.5 6q55 0 108.5 -22t94.5 -71q68 49 124.5 71t114.5 22q60 0 117.5 -24.5t102 -70t72.5 -109.5t28 -141q0 -19 -3 -22.5t-10 -3.5h-480v-286q0 -41 18 -69.5t46 -47.5t63 -28.5t72 -9.5q58 0 99 19t73 52t54.5 78t41.5 96h26q-34 -134 -113 -210t-196 -76 q-49 0 -88.5 7.5t-74 26.5t-67.5 50t-69 78q-34 -49 -70.5 -81t-75 -50t-76.5 -24.5t-75 -6.5q-90 0 -145 51.5t-55 166.5zM220 226q0 -75 32 -119.5t113 -44.5q70 0 114 49t44 171v132h-130q-75 0 -124 -55.5t-49 -132.5zM674 503h322q0 98 -9.5 155t-28.5 84.5t-50 34 t-74 6.5q-83 0 -121.5 -41.5t-38.5 -137.5v-101z" />
<glyph unicode="&#xe7;" horiz-adv-x="817" d="M90 414q0 79 26.5 153.5t75.5 131t115 90.5t147 34q41 0 86 -10.5t83 -36t62.5 -65t24.5 -97.5q0 -43 -20 -81t-52 -38q-36 0 -65 23.5t-29 80.5q0 21 8.5 36.5t19 27t19 22t8.5 25.5q0 21 -18 35t-42.5 23t-50 12t-38.5 3q-68 0 -105.5 -30t-54.5 -77t-19 -102.5 t-2 -106.5v-196q0 -145 39.5 -202.5t141.5 -57.5q90 0 151.5 68t89.5 177h36q-21 -134 -95.5 -210t-215.5 -76l-43 -100q34 4 49 6t28 2q58 0 96.5 -36t38.5 -115q0 -55 -22.5 -88.5t-57 -50.5t-75 -22t-74.5 -5q-30 0 -59.5 8.5t-59.5 20.5l21 62q28 -15 92 -15 q19 0 42.5 3.5t42.5 13t32 24.5t13 40q0 38 -29 59.5t-71 21.5q-36 0 -54 -8l-27 6l72 180q-134 30 -207.5 148t-73.5 289z" />
<glyph unicode="&#xe8;" horiz-adv-x="791" d="M68 439q0 77 22.5 158t64 149.5t103.5 112t141 43.5q85 0 146 -45.5t98.5 -106.5t54.5 -122t17 -93q0 -43 -32 -42h-450v-162q0 -49 5 -98.5t24.5 -88.5t57.5 -64t102 -25q109 0 171 71.5t81 199.5h60q-26 -162 -107 -257t-205 -95q-79 0 -144 34.5t-112 95t-72.5 146 t-25.5 189.5zM194 1352q0 30 23.5 54.5t51.5 24.5q30 0 59.5 -32t53.5 -57l235 -271h-90l-277 205q-15 13 -35.5 35t-20.5 41zM233 570h305q15 0 15 15v19q0 41 -12 81t-32 70t-49 49t-61 19t-63 -19t-53.5 -49t-36 -70.5t-13.5 -80.5v-34z" />
<glyph unicode="&#xe9;" horiz-adv-x="791" d="M68 439q0 77 22.5 158t64 149.5t103.5 112t141 43.5q85 0 146 -45.5t98.5 -106.5t54.5 -122t17 -93q0 -43 -32 -42h-450v-162q0 -49 5 -98.5t24.5 -88.5t57.5 -64t102 -25q109 0 171 71.5t81 199.5h60q-26 -162 -107 -257t-205 -95q-79 0 -144 34.5t-112 95t-72.5 146 t-25.5 189.5zM233 570h305q15 0 15 15v19q0 41 -12 81t-32 70t-49 49t-61 19t-63 -19t-53.5 -49t-36 -70.5t-13.5 -80.5v-34zM250 1071l234 271q23 26 53.5 57.5t59.5 31.5q28 0 51.5 -24.5t23.5 -54.5q0 -19 -19 -41.5t-36 -34.5l-278 -205h-89z" />
<glyph unicode="&#xea;" horiz-adv-x="791" d="M68 439q0 77 22.5 158t64 149.5t103.5 112t141 43.5q85 0 146 -45.5t98.5 -106.5t54.5 -122t17 -93q0 -43 -32 -42h-450v-162q0 -49 5 -98.5t24.5 -88.5t57.5 -64t102 -25q109 0 171 71.5t81 199.5h60q-26 -162 -107 -257t-205 -95q-79 0 -144 34.5t-112 95t-72.5 146 t-25.5 189.5zM113 1045l228 346h128l229 -346h-79l-211 211l-216 -211h-79zM233 570h305q15 0 15 15v19q0 41 -12 81t-32 70t-49 49t-61 19t-63 -19t-53.5 -49t-36 -70.5t-13.5 -80.5v-34z" />
<glyph unicode="&#xeb;" horiz-adv-x="791" d="M68 439q0 77 22.5 158t64 149.5t103.5 112t141 43.5q85 0 146 -45.5t98.5 -106.5t54.5 -122t17 -93q0 -43 -32 -42h-450v-162q0 -49 5 -98.5t24.5 -88.5t57.5 -64t102 -25q109 0 171 71.5t81 199.5h60q-26 -162 -107 -257t-205 -95q-79 0 -144 34.5t-112 95t-72.5 146 t-25.5 189.5zM120 1160q0 45 29.5 77t70.5 32t69.5 -32t28.5 -77t-28.5 -76.5t-69.5 -31.5t-70.5 32t-29.5 76zM233 570h305q15 0 15 15v19q0 41 -12 81t-32 70t-49 49t-61 19t-63 -19t-53.5 -49t-36 -70.5t-13.5 -80.5v-34zM493 1160q0 45 30 77t70 32q38 0 67 -32t29 -77 t-29 -76.5t-67 -31.5q-41 0 -70.5 32t-29.5 76z" />
<glyph unicode="&#xec;" horiz-adv-x="512" d="M55 1352q0 30 23.5 54.5t51.5 24.5q30 0 59.5 -32t53.5 -57l235 -271h-90l-277 205q-15 13 -35.5 35t-20.5 41zM79 0v77h124v691h-124v77h128q34 0 74.5 1t70.5 5v-774h124v-77h-397z" />
<glyph unicode="&#xed;" horiz-adv-x="512" d="M79 0v77h124v691h-124v77h128q34 0 74.5 1t70.5 5v-774h124v-77h-397zM111 1071l234 271q23 26 53.5 57.5t59.5 31.5q28 0 51.5 -24.5t23.5 -54.5q0 -19 -19 -41.5t-36 -34.5l-278 -205h-89z" />
<glyph unicode="&#xee;" horiz-adv-x="512" d="M-26 1045l228 346h128l229 -346h-79l-211 211l-216 -211h-79zM79 0v77h124v691h-124v77h128q34 0 74.5 1t70.5 5v-774h124v-77h-397z" />
<glyph unicode="&#xef;" horiz-adv-x="512" d="M-19 1160q0 45 29.5 77t70.5 32t69.5 -32t28.5 -77t-28.5 -76.5t-69.5 -31.5t-70.5 32t-29.5 76zM79 0v77h124v691h-124v77h128q34 0 74.5 1t70.5 5v-774h124v-77h-397zM354 1160q0 45 30 77t70 32q38 0 67 -32t29 -77t-29 -76.5t-67 -31.5q-41 0 -70.5 32t-29.5 76z" />
<glyph unicode="&#xf0;" d="M94 390q0 85 30 164.5t80 139t116 94.5t141 35q15 0 39.5 -4t50 -12.5t51 -22.5t42.5 -31q-11 147 -48 251.5t-125 185.5l-183 -121l-23 40l181 120h2q-36 47 -98 79t-105 47l20 44q21 0 58.5 -16t78 -36t77.5 -37t56 -19l163 104l27 -36l-164 -111q267 -256 267 -702 q0 -151 -30 -260t-80 -179.5t-117.5 -103.5t-139.5 -33q-75 0 -141 33t-116 90.5t-80 133.5t-30 163zM273 397q0 -102 3 -175t21.5 -120t55.5 -69t108 -22q70 0 107.5 22t55.5 69t21.5 119.5t3.5 175.5q0 102 -6.5 174.5t-26 119.5t-56.5 69.5t-99 22.5q-70 0 -107.5 -22.5 t-56 -69.5t-21.5 -119.5t-3 -174.5z" />
<glyph unicode="&#xf1;" horiz-adv-x="987" d="M23 0v77h137v706h-137v77h137q75 0 104.5 2t44.5 17v-162q19 28 47 61t62 60.5t74.5 45.5t87.5 18q70 0 117.5 -20t75 -54t39 -79t11.5 -94v-578h139v-77h-422v77h134v625q0 68 -30 94.5t-77 26.5q-53 0 -95.5 -24.5t-74.5 -58.5t-54.5 -70t-33.5 -62v-531h133v-77h-419z M265 1080q15 90 65 158t139 68q38 0 73.5 -16t67.5 -33q36 -19 67 -34t61 -15q38 0 60.5 34t33.5 70h64q-11 -45 -27 -86.5t-41.5 -73.5t-59.5 -51t-81 -19q-36 0 -73.5 16t-71.5 33q-32 19 -63 34t-54 15q-43 0 -66.5 -29t-34.5 -71h-59z" />
<glyph unicode="&#xf2;" horiz-adv-x="887" d="M68 439q0 90 23.5 173t70.5 147t117.5 103.5t164.5 39.5q92 0 162 -39.5t118 -103.5t71.5 -147t23.5 -173t-23.5 -174t-71.5 -149t-118.5 -103.5t-161.5 -38.5q-94 0 -164.5 38.5t-117.5 103.5t-70.5 149t-23.5 174zM235 363q0 -60 11.5 -115.5t36 -98t64 -68.5t97.5 -26 t97 26t63.5 68.5t36.5 98t12 115.5v153q0 60 -12 115.5t-36.5 98t-64 68t-96.5 25.5q-58 0 -97.5 -25.5t-64 -68t-36 -98t-11.5 -115.5v-153zM237 1352q0 30 23.5 54.5t51.5 24.5q30 0 59.5 -32t53.5 -57l235 -271h-90l-277 205q-15 13 -35.5 35t-20.5 41z" />
<glyph unicode="&#xf3;" horiz-adv-x="887" d="M68 439q0 90 23.5 173t70.5 147t117.5 103.5t164.5 39.5q92 0 162 -39.5t118 -103.5t71.5 -147t23.5 -173t-23.5 -174t-71.5 -149t-118.5 -103.5t-161.5 -38.5q-94 0 -164.5 38.5t-117.5 103.5t-70.5 149t-23.5 174zM235 363q0 -60 11.5 -115.5t36 -98t64 -68.5t97.5 -26 t97 26t63.5 68.5t36.5 98t12 115.5v153q0 60 -12 115.5t-36.5 98t-64 68t-96.5 25.5q-58 0 -97.5 -25.5t-64 -68t-36 -98t-11.5 -115.5v-153zM293 1071l234 271q23 26 53.5 57.5t59.5 31.5q28 0 51.5 -24.5t23.5 -54.5q0 -19 -19 -41.5t-36 -34.5l-278 -205h-89z" />
<glyph unicode="&#xf4;" horiz-adv-x="887" d="M68 439q0 90 23.5 173t70.5 147t117.5 103.5t164.5 39.5q92 0 162 -39.5t118 -103.5t71.5 -147t23.5 -173t-23.5 -174t-71.5 -149t-118.5 -103.5t-161.5 -38.5q-94 0 -164.5 38.5t-117.5 103.5t-70.5 149t-23.5 174zM156 1045l228 346h128l229 -346h-79l-211 211 l-216 -211h-79zM235 363q0 -60 11.5 -115.5t36 -98t64 -68.5t97.5 -26t97 26t63.5 68.5t36.5 98t12 115.5v153q0 60 -12 115.5t-36.5 98t-64 68t-96.5 25.5q-58 0 -97.5 -25.5t-64 -68t-36 -98t-11.5 -115.5v-153z" />
<glyph unicode="&#xf5;" horiz-adv-x="887" d="M68 439q0 90 23.5 173t70.5 147t117.5 103.5t164.5 39.5q92 0 162 -39.5t118 -103.5t71.5 -147t23.5 -173t-23.5 -174t-71.5 -149t-118.5 -103.5t-161.5 -38.5q-94 0 -164.5 38.5t-117.5 103.5t-70.5 149t-23.5 174zM133 1080q15 90 65 158t139 68q38 0 73.5 -16 t67.5 -33q36 -19 67 -34t61 -15q38 0 60.5 34t33.5 70h64q-11 -45 -27 -86.5t-41.5 -73.5t-59.5 -51t-81 -19q-36 0 -73.5 16t-71.5 33q-32 19 -63 34t-54 15q-43 0 -66.5 -29t-34.5 -71h-59zM235 363q0 -60 11.5 -115.5t36 -98t64 -68.5t97.5 -26t97 26t63.5 68.5t36.5 98 t12 115.5v153q0 60 -12 115.5t-36.5 98t-64 68t-96.5 25.5q-58 0 -97.5 -25.5t-64 -68t-36 -98t-11.5 -115.5v-153z" />
<glyph unicode="&#xf6;" horiz-adv-x="887" d="M68 439q0 90 23.5 173t70.5 147t117.5 103.5t164.5 39.5q92 0 162 -39.5t118 -103.5t71.5 -147t23.5 -173t-23.5 -174t-71.5 -149t-118.5 -103.5t-161.5 -38.5q-94 0 -164.5 38.5t-117.5 103.5t-70.5 149t-23.5 174zM163 1160q0 45 29.5 77t70.5 32t69.5 -32t28.5 -77 t-28.5 -76.5t-69.5 -31.5t-70.5 32t-29.5 76zM235 363q0 -60 11.5 -115.5t36 -98t64 -68.5t97.5 -26t97 26t63.5 68.5t36.5 98t12 115.5v153q0 60 -12 115.5t-36.5 98t-64 68t-96.5 25.5q-58 0 -97.5 -25.5t-64 -68t-36 -98t-11.5 -115.5v-153zM536 1160q0 45 30 77t70 32 q38 0 67 -32t29 -77t-29 -76.5t-67 -31.5q-41 0 -70.5 32t-29.5 76z" />
<glyph unicode="&#xf7;" d="M53 403v103h817v-103h-817zM341 162q0 51 37.5 85.5t82.5 34.5t80 -34.5t35 -85.5q0 -47 -35 -82t-80 -35t-82.5 35t-37.5 82zM341 745q0 49 37.5 83t82.5 34t80 -34t35 -83q0 -51 -35 -85.5t-80 -34.5t-82.5 34t-37.5 86z" />
<glyph unicode="&#xf8;" d="M85 439q0 90 23.5 173t70.5 147t117.5 103.5t164.5 39.5q58 0 107 -16t89 -45l124 230h62l-141 -267q66 -66 100 -162t34 -203q0 -90 -23.5 -174t-71.5 -149t-118 -103.5t-162 -38.5q-51 0 -96 12t-81 33l-113 -213h-66l132 247q-77 64 -114.5 167.5t-37.5 218.5z M252 363q0 -55 9.5 -107.5t30.5 -95.5l316 589q-51 74 -147 74q-58 0 -97.5 -25.5t-64 -68t-36 -98t-11.5 -115.5v-153zM331 107q51 -51 130 -52q58 0 97 26t63.5 68.5t36.5 98t12 115.5v153q0 47 -6.5 92t-23.5 83z" />
<glyph unicode="&#xf9;" horiz-adv-x="989" d="M34 783v77h141q47 0 89.5 3t59.5 20v-712q0 -115 111 -116q47 0 89.5 25t76 64t52.5 89.5t19 101.5v448h-137v77h137q47 0 89.5 5t59.5 25v-813h137v-77h-286v139q-17 -23 -40.5 -52t-55.5 -53.5t-70.5 -42t-85.5 -17.5q-68 0 -114 20.5t-75.5 53.5t-42.5 78t-13 94v563 h-141zM279 1352q0 30 23.5 54.5t51.5 24.5q30 0 59.5 -32t53.5 -57l235 -271h-90l-277 205q-15 13 -35.5 35t-20.5 41z" />
<glyph unicode="&#xfa;" horiz-adv-x="989" d="M34 783v77h141q47 0 89.5 3t59.5 20v-712q0 -115 111 -116q47 0 89.5 25t76 64t52.5 89.5t19 101.5v448h-137v77h137q47 0 89.5 5t59.5 25v-813h137v-77h-286v139q-17 -23 -40.5 -52t-55.5 -53.5t-70.5 -42t-85.5 -17.5q-68 0 -114 20.5t-75.5 53.5t-42.5 78t-13 94v563 h-141zM335 1071l234 271q23 26 53.5 57.5t59.5 31.5q28 0 51.5 -24.5t23.5 -54.5q0 -19 -19 -41.5t-36 -34.5l-278 -205h-89z" />
<glyph unicode="&#xfb;" horiz-adv-x="989" d="M34 783v77h141q47 0 89.5 3t59.5 20v-712q0 -115 111 -116q47 0 89.5 25t76 64t52.5 89.5t19 101.5v448h-137v77h137q47 0 89.5 5t59.5 25v-813h137v-77h-286v139q-17 -23 -40.5 -52t-55.5 -53.5t-70.5 -42t-85.5 -17.5q-68 0 -114 20.5t-75.5 53.5t-42.5 78t-13 94v563 h-141zM198 1045l228 346h128l229 -346h-79l-211 211l-216 -211h-79z" />
<glyph unicode="&#xfc;" horiz-adv-x="989" d="M34 783v77h141q47 0 89.5 3t59.5 20v-712q0 -115 111 -116q47 0 89.5 25t76 64t52.5 89.5t19 101.5v448h-137v77h137q47 0 89.5 5t59.5 25v-813h137v-77h-286v139q-17 -23 -40.5 -52t-55.5 -53.5t-70.5 -42t-85.5 -17.5q-68 0 -114 20.5t-75.5 53.5t-42.5 78t-13 94v563 h-141zM205 1160q0 45 29.5 77t70.5 32t69.5 -32t28.5 -77t-28.5 -76.5t-69.5 -31.5t-70.5 32t-29.5 76zM578 1160q0 45 30 77t70 32q38 0 67 -32t29 -77t-29 -76.5t-67 -31.5q-41 0 -70.5 32t-29.5 76z" />
<glyph unicode="&#xfd;" horiz-adv-x="938" d="M19 783v77h391v-77h-113l228 -585l149 485q6 23 12.5 44.5t6.5 29.5q0 17 -24.5 21.5t-79.5 4.5h-58v77h388v-77q-43 0 -67 -5.5t-39 -17t-24.5 -32t-20.5 -52.5l-309 -945q-28 -75 -50.5 -126t-48 -82t-59.5 -44.5t-88 -13.5q-64 0 -100 42.5t-36 102.5q0 36 30 64.5 t66 28.5q43 0 69.5 -27.5t26.5 -65.5q0 -28 17 -28q30 0 53 77l105 303l-325 821h-100zM335 1071l234 271q23 26 53.5 57.5t59.5 31.5q28 0 51.5 -24.5t23.5 -54.5q0 -19 -19 -41.5t-36 -34.5l-278 -205h-89z" />
<glyph unicode="&#xfe;" horiz-adv-x="1026" d="M47 1316v51h81q62 0 116.5 9t98.5 19l5 -742q21 45 54 77t68.5 53t67.5 30.5t55 9.5q70 0 130 -36t103.5 -94.5t68 -135.5t24.5 -158q0 -77 -24.5 -153.5t-68 -137.5t-103.5 -99.5t-130 -38.5q-83 0 -145 33t-105 112v-544h128v-51h-422v51h132v1745h-134zM343 282 q0 -51 16 -99.5t47 -86.5t74 -61.5t96 -23.5q162 0 162 155v438q0 83 -32 131t-128 48q-45 0 -87.5 -25.5t-74.5 -63t-52.5 -78t-20.5 -70.5v-264z" />
<glyph unicode="&#xff;" horiz-adv-x="938" d="M19 783v77h391v-77h-113l228 -585l149 485q6 23 12.5 44.5t6.5 29.5q0 17 -24.5 21.5t-79.5 4.5h-58v77h388v-77q-43 0 -67 -5.5t-39 -17t-24.5 -32t-20.5 -52.5l-309 -945q-28 -75 -50.5 -126t-48 -82t-59.5 -44.5t-88 -13.5q-64 0 -100 42.5t-36 102.5q0 36 30 64.5 t66 28.5q43 0 69.5 -27.5t26.5 -65.5q0 -28 17 -28q30 0 53 77l105 303l-325 821h-100zM205 1160q0 45 29.5 77t70.5 32t69.5 -32t28.5 -77t-28.5 -76.5t-69.5 -31.5t-70.5 32t-29.5 76zM578 1160q0 45 30 77t70 32q38 0 67 -32t29 -77t-29 -76.5t-67 -31.5q-41 0 -70.5 32 t-29.5 76z" />
<glyph unicode="&#x152;" horiz-adv-x="1843" d="M49 691q0 134 44 257t119.5 216t179 148t222.5 55h1108l12 -369h-40q-21 105 -47 168t-65.5 96t-98 43.5t-148.5 10.5h-206v-586h17q70 0 121 8.5t84.5 34t50.5 74.5t21 132h38v-572h-38q-6 85 -23.5 138.5t-50.5 83.5t-83 39.5t-120 9.5h-17v-627h281q96 0 153.5 28 t90.5 79t49 122.5t31 158.5h43l-19 -439h-1144q-107 0 -208 46t-181 134.5t-128 216.5t-48 294zM286 704q0 -145 6.5 -264.5t41.5 -206t109.5 -134.5t211.5 -48q96 0 150.5 27t81 75t34 112t7.5 138v570q0 73 -6.5 134.5t-33 108.5t-80 73.5t-145.5 26.5q-139 0 -214.5 -52 t-111.5 -138.5t-43.5 -196.5t-7.5 -225z" />
<glyph unicode="&#x153;" horiz-adv-x="1331" d="M47 412q0 83 33 157.5t87.5 131t122.5 89.5t141 33q77 0 141 -32t119 -87q53 58 118.5 88.5t139.5 30.5q62 0 123 -26.5t108 -72.5t74.5 -108.5t27.5 -135.5q0 -28 -17 -28h-476v-273q0 -70 38.5 -119t123.5 -49q111 0 179.5 64t106.5 177h43q-11 -60 -39.5 -111 t-71.5 -89.5t-94 -60t-106 -21.5q-85 0 -150.5 21.5t-127.5 89.5q-119 -111 -258 -111q-92 0 -162 42.5t-120.5 109t-77 143t-26.5 147.5zM267 390q0 -115 5 -188.5t22 -116t50.5 -58.5t88.5 -16q41 0 73 9.5t53 48t32 114t11 207.5q0 137 -8.5 216t-28 118.5t-52.5 49 t-82 9.5q-45 0 -76 -9.5t-51 -48t-28.5 -117.5t-8.5 -218zM789 503h286v101.5t-12.5 90t-41.5 64t-87 24.5t-88.5 -24.5t-42.5 -64t-13 -89.5t-1 -102z" />
<glyph unicode="&#x178;" horiz-adv-x="1233" d="M19 1365v77h519v-77h-135l280 -710l226 531q23 55 35 91.5t12 60.5q0 15 -18.5 21t-67.5 6h-72v77h418v-77h-77q-55 0 -75.5 -26.5t-37.5 -67.5l-331 -742v-452h188v-77h-557v77h188v448l-331 840h-164zM406 1653q0 45 29.5 77t70.5 32t69.5 -32t28.5 -77t-28.5 -76.5 t-69.5 -31.5t-70.5 32t-29.5 76zM779 1653q0 45 30 77t70 32q38 0 67 -32t29 -77t-29 -76.5t-67 -31.5q-41 0 -70.5 32t-29.5 76z" />
<glyph unicode="&#x2c6;" horiz-adv-x="614" d="M15 1022l228 345h128l228 -345h-78l-214 211l-213 -211h-79z" />
<glyph unicode="&#x2dc;" horiz-adv-x="614" d="M-11 1054q17 90 66.5 158t140.5 68q38 0 73.5 -16t67.5 -33q36 -19 67 -34t61 -15q38 0 60.5 34t33.5 70h64q-11 -45 -27 -86.5t-41.5 -73.5t-59.5 -51t-81 -19q-36 0 -73.5 16t-71.5 33q-32 19 -63 34t-55 15q-43 0 -66 -28.5t-34 -71.5h-62z" />
<glyph unicode="&#x2000;" horiz-adv-x="962" />
<glyph unicode="&#x2001;" horiz-adv-x="1924" />
<glyph unicode="&#x2002;" horiz-adv-x="962" />
<glyph unicode="&#x2003;" horiz-adv-x="1924" />
<glyph unicode="&#x2004;" horiz-adv-x="641" />
<glyph unicode="&#x2005;" horiz-adv-x="481" />
<glyph unicode="&#x2006;" horiz-adv-x="320" />
<glyph unicode="&#x2007;" horiz-adv-x="320" />
<glyph unicode="&#x2008;" horiz-adv-x="240" />
<glyph unicode="&#x2009;" horiz-adv-x="384" />
<glyph unicode="&#x200a;" horiz-adv-x="106" />
<glyph unicode="&#x2010;" horiz-adv-x="1024" d="M173 642v88h702v-88h-702z" />
<glyph unicode="&#x2011;" horiz-adv-x="1024" d="M173 642v88h702v-88h-702z" />
<glyph unicode="&#x2012;" horiz-adv-x="1024" d="M173 642v88h702v-88h-702z" />
<glyph unicode="&#x2013;" d="M38 356v111h845v-111h-845z" />
<glyph unicode="&#x2014;" horiz-adv-x="1843" d="M38 356v111h1767v-111h-1767z" />
<glyph unicode="&#x2018;" horiz-adv-x="614" d="M154 1229v126q0 96 38 151.5t154 55.5v-32q-77 0 -102.5 -39.5t-25.5 -135.5h70q23 0 40.5 -19.5t17.5 -46.5v-126h-135q-23 0 -40 19t-17 47z" />
<glyph unicode="&#x2019;" horiz-adv-x="614" d="M154 1163v32q77 0 102.5 39.5t25.5 135.5h-71q-23 0 -40 19t-17 47v126h134q23 0 40.5 -19.5t17.5 -47.5v-125q0 -96 -38.5 -151.5t-153.5 -55.5z" />
<glyph unicode="&#x201a;" horiz-adv-x="614" d="M154 66v126h134q23 0 40.5 -19t17.5 -47v-126q0 -96 -38.5 -151.5t-153.5 -55.5v32q77 0 102.5 39.5t25.5 135.5h-71q-23 0 -40 19t-17 47z" />
<glyph unicode="&#x201c;" d="M294 1229v126q0 96 38.5 151.5t153.5 55.5v-32q-77 0 -102.5 -39.5t-25.5 -135.5h71q23 0 40 -19.5t17 -46.5v-126h-134q-23 0 -40.5 19t-17.5 47zM576 1229v126q0 96 38.5 151.5t153.5 55.5v-32q-77 0 -102.5 -39.5t-25.5 -135.5h70q23 0 40.5 -19.5t17.5 -46.5v-126 h-134q-23 0 -40.5 19t-17.5 47z" />
<glyph unicode="&#x201d;" d="M154 1163v32q77 0 102.5 39.5t25.5 135.5h-71q-23 0 -40 19t-17 47v126h134q23 0 40.5 -19.5t17.5 -47.5v-125q0 -96 -38.5 -151.5t-153.5 -55.5zM435 1163v32q77 0 102.5 39.5t25.5 135.5h-70q-23 0 -40.5 19t-17.5 47v126h135q23 0 40 -19.5t17 -47.5v-125 q0 -96 -38.5 -151.5t-153.5 -55.5z" />
<glyph unicode="&#x201e;" d="M154 66v126h134q23 0 40.5 -19t17.5 -47v-126q0 -96 -38.5 -151.5t-153.5 -55.5v32q77 0 102.5 39.5t25.5 135.5h-71q-23 0 -40 19t-17 47zM435 66v126h135q23 0 40 -19t17 -47v-126q0 -96 -38.5 -151.5t-153.5 -55.5v32q77 0 102.5 39.5t25.5 135.5h-70q-23 0 -40.5 19 t-17.5 47z" />
<glyph unicode="&#x2022;" horiz-adv-x="1141" d="M320 685q0 51 18 97t52.5 79t80.5 53t101 20t100 -20t79 -53t52 -79t18 -97t-18 -98t-52 -80t-79 -53.5t-100 -20.5t-101 20.5t-80.5 53.5t-52.5 80t-18 98z" />
<glyph unicode="&#x2026;" horiz-adv-x="1843" d="M224 638q0 43 31 73.5t74 30.5t73.5 -30.5t30.5 -73.5t-31 -74t-73 -31q-43 0 -74 31t-31 74zM817 638q0 43 31 73.5t74 30.5t73.5 -30.5t30.5 -73.5t-31 -74t-73 -31q-43 0 -74 31t-31 74zM1410 638q0 43 31 73.5t74 30.5t73.5 -30.5t30.5 -73.5t-31 -74t-73 -31 q-43 0 -74 31t-31 74z" />
<glyph unicode="&#x202f;" horiz-adv-x="384" />
<glyph unicode="&#x2039;" horiz-adv-x="614" d="M143 412q0 9 8.5 16t21.5 18q36 34 70 66t65 65t65 69.5t73 78.5q6 9 14.5 3.5t8.5 -11.5q0 -23 -22 -66t-54 -90t-64.5 -88.5t-49.5 -60.5q17 -19 49.5 -61t64.5 -89t54 -90.5t22 -64.5q0 -6 -8.5 -11.5t-14.5 2.5q-38 43 -72.5 79t-65.5 68t-65 64t-70 69 q-13 11 -21.5 18t-8.5 16z" />
<glyph unicode="&#x203a;" horiz-adv-x="614" d="M143 107q0 21 23.5 64.5t55.5 90.5t63 89t50 61q-19 19 -50 60.5t-63 88.5t-55.5 89.5t-23.5 66.5q0 6 9.5 11.5t13.5 -3.5q38 -43 72.5 -79t66.5 -69t65 -65t69 -66q30 -23 30 -34t-30 -34q-36 -36 -69 -68.5t-65 -64.5t-66 -68t-73 -79q-4 -9 -13.5 -3.5t-9.5 12.5z " />
<glyph unicode="&#x205f;" horiz-adv-x="481" />
<glyph unicode="&#x2122;" horiz-adv-x="1585" d="M90 1154v228h580v-228h-39q0 62 -7 99.5t-28.5 57.5t-59 26.5t-97.5 6.5h-14v-646h91v-37h-273v37h92v646h-13q-60 0 -98 -6.5t-59.5 -26.5t-29 -57.5t-7.5 -99.5h-38zM759 661v37h28q17 0 29 3t18.5 10.5t8.5 22.5t2 36v574h-86v38h190l192 -561l186 561h166v-38h-79 v-646h79v-37h-251v37h83v546l-192 -568h-34l-216 593v-499q0 -21 2 -36t8.5 -22.5t17.5 -10.5t30 -3h34v-37h-216z" />
<glyph unicode="&#x25fc;" horiz-adv-x="864" d="M0 0v864h864v-864h-864z" />
</font>
</defs>
</svg>
