<?xml version="1.0" encoding="utf-8"?>
<!-- Generator: Adobe Illustrator 16.2.1, SVG Export Plug-In . SVG Version: 6.00 Build 0)  -->
<!DOCTYPE svg PUBLIC "-//W3C//DTD SVG 1.1//EN" "http://www.w3.org/Graphics/SVG/1.1/DTD/svg11.dtd">
<svg version="1.1" id="Layer_3" xmlns="http://www.w3.org/2000/svg" xmlns:xlink="http://www.w3.org/1999/xlink" x="0px" y="0px"
	 width="279px" height="699px" viewBox="-11.066 -24.909 279 699" enable-background="new -11.066 -24.909 279 699"
	 xml:space="preserve">
<polygon fill="#03667D" points="166.75,368.344 166.758,368.344 192.15,412.085 192.145,412.094 141.364,412.094 141.36,412.085 "/>
<polygon fill="#004C6C" points="166.754,455.838 141.364,412.094 192.145,412.094 "/>
<polygon fill="#221F1F" points="141.364,412.094 141.356,412.094 141.36,412.085 "/>
<polygon fill="#221F1F" points="217.549,455.846 217.54,455.846 217.545,455.838 "/>
<polygon fill="#026CA3" points="192.155,412.094 217.545,455.838 217.54,455.846 166.758,455.846 166.754,455.838 192.145,412.094 
	"/>
<polygon fill="#499343" points="166.754,18.336 166.75,18.344 115.969,18.344 115.964,18.336 141.356,-25.406 141.366,-25.406 "/>
<polygon fill="#221F1F" points="90.542,587.096 90.545,587.089 90.548,587.096 "/>
<polygon fill="#221F1F" points="242.996,587.096 242.984,587.096 242.989,587.089 "/>
<polygon fill="#221F1F" points="166.75,630.846 166.754,630.84 166.758,630.846 "/>
<polygon fill="#008256" points="192.15,674.588 166.758,630.846 217.54,630.846 "/>
<polygon fill="#009888" points="39.755,587.089 14.34,543.344 65.144,543.344 "/>
<polygon fill="#221F1F" points="14.329,543.344 14.333,543.337 14.34,543.344 "/>
<polygon fill="#00A774" points="192.15,587.089 166.758,543.344 217.542,543.344 "/>
<polygon fill="#221F1F" points="293.777,674.594 293.781,674.588 293.785,674.594 "/>
<polygon fill="#008256" points="115.964,630.84 90.548,587.096 141.356,587.096 "/>
<polygon fill="#221F1F" points="242.996,237.092 242.984,237.092 242.989,237.085 "/>
<polygon fill="#008256" points="268.381,193.343 268.392,193.343 293.781,237.085 293.775,237.092 242.996,237.092 242.989,237.085 
	"/>
<polygon fill="#00A663" points="217.549,193.343 242.989,237.085 242.984,237.092 192.154,237.092 192.15,237.085 217.54,193.343 
	"/>
<polygon fill="#221F1F" points="65.153,368.344 65.143,368.344 65.148,368.337 "/>
<polygon fill="#00AAA0" points="90.542,324.593 90.548,324.593 115.964,368.337 115.96,368.344 65.153,368.344 65.148,368.337 "/>
<polygon fill="#12AD4B" points="65.148,193.335 39.758,149.593 90.542,149.593 "/>
<polygon fill="#221F1F" points="115.969,193.343 115.96,193.343 115.964,193.335 "/>
<polygon fill="#179146" points="90.548,149.593 115.964,193.335 115.96,193.343 65.153,193.343 65.148,193.335 90.542,149.593 "/>
<polygon fill="#0C6C38" points="268.381,18.344 268.392,18.344 293.781,62.086 293.775,62.092 242.996,62.092 242.989,62.086 "/>
<polygon fill="#221F1F" points="217.542,18.344 217.545,18.336 217.549,18.344 "/>
<polygon fill="#221F1F" points="242.996,62.092 242.984,62.092 242.989,62.086 "/>
<polygon fill="#221F1F" points="65.153,543.344 65.144,543.344 65.148,543.337 "/>
<polygon fill="#0295A1" points="39.758,499.594 65.148,543.337 65.144,543.344 14.34,543.344 14.333,543.337 39.75,499.594 "/>
<polygon fill="#036635" points="141.356,149.593 141.364,149.593 166.754,193.335 166.75,193.343 115.969,193.343 115.964,193.335 
	"/>
<polygon fill="#221F1F" points="166.758,193.343 166.75,193.343 166.754,193.335 "/>
<polygon fill="#221F1F" points="65.144,18.344 65.148,18.336 65.153,18.344 "/>
<polygon fill="#221F1F" points="39.75,62.092 39.755,62.086 39.758,62.092 "/>
<polygon fill="#12AD4B" points="65.149,105.836 65.144,105.844 14.34,105.844 14.333,105.836 39.75,62.092 39.758,62.092 "/>
<polygon fill="#008256" points="192.15,237.085 166.758,193.343 217.54,193.343 "/>
<polygon fill="#221F1F" points="268.392,630.846 268.381,630.846 268.386,630.84 "/>
<polygon fill="#008256" points="242.984,587.096 242.996,587.096 268.386,630.84 268.381,630.846 217.549,630.846 217.545,630.838 
	"/>
<polygon fill="#00926C" points="217.545,630.838 192.155,587.096 242.984,587.096 "/>
<polygon fill="#221F1F" points="192.145,587.096 192.15,587.089 192.155,587.096 "/>
<polygon fill="#00AF8F" points="141.36,587.089 115.969,543.344 166.75,543.344 "/>
<polygon fill="#221F1F" points="115.96,543.344 115.964,543.337 115.969,543.344 "/>
<polygon fill="#221F1F" points="141.364,587.096 141.356,587.096 141.36,587.089 "/>
<polygon fill="#00B08F" points="166.754,630.84 141.364,587.096 192.145,587.096 "/>
<polygon fill="#221F1F" points="217.549,630.846 217.54,630.846 217.545,630.838 "/>
<polygon fill="#221F1F" points="39.75,499.594 39.755,499.589 39.758,499.594 "/>
<polygon fill="#17C0DA" points="65.153,455.846 90.546,499.589 90.542,499.594 39.758,499.594 39.755,499.589 65.144,455.846 "/>
<polygon fill="#00A7B8" points="65.148,543.337 39.758,499.594 90.542,499.594 "/>
<polygon fill="#00926C" points="90.545,587.089 65.153,543.344 115.96,543.344 "/>
<polygon fill="#00A774" points="115.969,543.344 141.36,587.089 141.356,587.096 90.548,587.096 90.545,587.089 115.96,543.344 "/>
<polygon fill="#76CFE4" points="217.545,543.337 192.155,499.594 242.986,499.594 "/>
<polygon fill="#221F1F" points="268.392,543.344 268.381,543.344 268.386,543.337 "/>
<polygon fill="#17C0DA" points="217.54,455.846 217.549,455.846 242.989,499.589 242.986,499.594 192.155,499.594 192.15,499.589 
	"/>
<polygon fill="#221F1F" points="192.155,499.594 192.145,499.594 192.15,499.589 "/>
<polygon fill="#221F1F" points="192.155,149.593 192.145,149.593 192.15,149.586 "/>
<polygon fill="#221F1F" points="141.364,149.593 141.356,149.593 141.36,149.586 "/>
<polygon fill="#179146" points="115.969,105.844 141.36,149.586 141.356,149.593 90.548,149.593 90.545,149.586 115.96,105.844 "/>
<polygon fill="#01A94F" points="242.996,149.593 268.386,193.335 268.381,193.343 217.549,193.343 217.545,193.335 242.984,149.593 
	"/>
<polygon fill="#221F1F" points="268.392,193.343 268.381,193.343 268.386,193.335 "/>
<polygon fill="#029548" points="217.545,193.335 192.155,149.593 242.984,149.593 "/>
<polygon fill="#62BD69" points="115.964,105.836 115.96,105.844 65.153,105.844 65.149,105.836 90.542,62.092 90.548,62.092 "/>
<polygon fill="#221F1F" points="115.96,18.344 115.964,18.336 115.969,18.344 "/>
<polygon fill="#76C044" points="141.36,62.086 141.356,62.092 90.548,62.092 90.545,62.086 115.96,18.344 115.969,18.344 "/>
<polygon fill="#221F1F" points="90.542,62.092 90.545,62.086 90.548,62.092 "/>
<polygon fill="#00A9D4" points="141.36,499.587 115.969,455.846 166.75,455.846 "/>
<polygon fill="#221F1F" points="115.969,455.846 115.96,455.846 115.964,455.838 "/>
<line fill="none" x1="293.781" y1="237.085" x2="268.392" y2="193.343"/>
<polygon fill="#0CB14D" points="90.545,149.586 65.153,105.844 115.96,105.844 "/>
<path fill="#0CB14D" d="M293.785,149.593"/>
<polygon fill="#221F1F" points="166.758,105.844 166.75,105.844 166.754,105.836 "/>
<polygon fill="#221F1F" points="217.549,105.844 217.54,105.844 217.545,105.836 "/>
<polygon fill="#029548" points="268.392,105.844 293.779,149.586 293.775,149.593 242.996,149.593 242.989,149.586 268.381,105.844 
	"/>
<polygon fill="#179146" points="242.984,62.092 242.996,62.092 268.386,105.836 268.381,105.844 217.549,105.844 217.545,105.836 
	"/>
<polygon fill="#221F1F" points="166.758,543.344 166.75,543.344 166.754,543.337 "/>
<polygon fill="#221F1F" points="293.785,149.593 293.775,149.593 293.779,149.586 "/>
<polygon fill="#4EC4CF" points="192.145,499.594 192.155,499.594 217.545,543.337 217.542,543.344 166.758,543.344 166.754,543.337 
	"/>
<polygon fill="#036635" points="242.989,149.586 217.549,105.844 268.381,105.844 "/>
<polygon fill="#027DB5" points="115.96,455.846 115.969,455.846 141.36,499.587 141.356,499.594 90.548,499.594 90.546,499.589 "/>
<polygon fill="#221F1F" points="141.356,674.594 141.36,674.588 141.364,674.594 "/>
<polygon fill="#08A94E" points="192.15,62.086 192.145,62.092 141.364,62.092 141.36,62.086 166.75,18.344 166.758,18.344 "/>
<polygon fill="#221F1F" points="166.75,18.344 166.754,18.336 166.758,18.344 "/>
<polygon fill="#499343" points="217.545,18.336 217.542,18.344 166.758,18.344 166.754,18.336 192.145,-25.406 192.154,-25.406 "/>
<polygon fill="#004F52" points="141.364,499.594 166.754,543.337 166.75,543.344 115.969,543.344 115.964,543.337 141.356,499.594 
	"/>
<polygon fill="#221F1F" points="90.548,499.594 90.542,499.594 90.546,499.589 "/>
<polygon fill="#221F1F" points="141.356,62.092 141.36,62.086 141.364,62.092 "/>
<polygon fill="#4EC4CF" points="115.964,543.337 90.548,499.594 141.356,499.594 "/>
<polygon fill="#221F1F" points="192.155,674.594 192.145,674.594 192.15,674.588 "/>
<polygon fill="#221F1F" points="268.381,280.844 268.386,280.836 268.392,280.844 "/>
<polygon fill="#00A663" points="141.356,587.096 141.364,587.096 166.754,630.84 166.75,630.846 115.969,630.846 115.964,630.84 "/>
<polygon fill="#029548" points="166.754,193.335 141.364,149.593 192.145,149.593 "/>
<polygon fill="#221F1F" points="65.144,105.844 65.149,105.836 65.153,105.844 "/>
<polygon fill="#221F1F" points="293.775,237.092 293.781,237.085 293.785,237.092 "/>
<polygon fill="#221F1F" points="90.542,149.593 90.545,149.586 90.548,149.593 "/>
<polygon fill="#221F1F" points="217.54,193.343 217.545,193.335 217.549,193.343 "/>
<polygon fill="#221F1F" points="39.758,587.096 39.75,587.096 39.755,587.089 "/>
<polygon fill="#221F1F" points="115.969,630.846 115.96,630.846 115.964,630.84 "/>
<polygon fill="#33572A" points="90.548,-25.406 141.356,-25.406 115.964,18.336 "/>
<polygon fill="#639D42" points="65.153,18.344 115.96,18.344 90.545,62.086 "/>
<polygon fill="#036635" points="14.34,193.343 65.144,193.343 39.755,237.085 "/>
<polygon fill="#00926C" points="192.15,324.585 166.758,280.844 217.54,280.844 "/>
<polygon fill="#221F1F" points="166.75,280.844 166.754,280.836 166.758,280.844 "/>
<polygon fill="#008256" points="65.149,280.836 39.758,237.092 90.542,237.092 "/>
<polygon fill="#01A94F" points="14.333,280.836 -11.059,237.092 39.75,237.092 "/>
<polygon fill="#221F1F" points="-11.065,237.092 -11.062,237.085 -11.059,237.092 "/>
<polygon fill="#221F1F" points="242.984,324.593 242.989,324.585 242.996,324.593 "/>
<polygon fill="#221F1F" points="192.145,237.092 192.15,237.085 192.154,237.092 "/>
<polygon fill="#93C94A" points="-11.059,62.092 39.75,62.092 14.333,105.836 "/>
<polygon fill="#221F1F" points="14.33,105.844 14.333,105.836 14.34,105.844 "/>
<polygon fill="#0C6C38" points="90.546,237.085 65.153,193.343 115.96,193.343 "/>
<polygon fill="#221F1F" points="65.144,193.343 65.148,193.335 65.153,193.343 "/>
<polygon fill="#221F1F" points="242.996,674.594 242.984,674.594 242.989,674.588 "/>
<polygon fill="#00A774" points="192.154,237.092 217.545,280.836 217.54,280.844 166.758,280.844 166.754,280.836 192.145,237.092 
	"/>
<polygon fill="#221F1F" points="217.549,280.844 217.54,280.844 217.545,280.836 "/>
<polygon fill="#006645" points="166.75,193.343 166.758,193.343 192.15,237.085 192.145,237.092 141.366,237.092 141.36,237.085 "/>
<polygon fill="#221F1F" points="141.366,237.092 141.356,237.092 141.36,237.085 "/>
<polygon fill="#00A663" points="242.984,237.092 242.996,237.092 268.386,280.836 268.381,280.844 217.549,280.844 217.545,280.836 
	"/>
<polygon fill="#221F1F" points="90.548,237.092 90.542,237.092 90.546,237.085 "/>
<polygon fill="#92AE3D" points="192.154,-25.406 242.986,-25.406 217.545,18.336 "/>
<polygon fill="#008342" points="166.758,18.344 217.542,18.344 192.15,62.086 "/>
<polygon fill="#221F1F" points="39.758,237.092 39.75,237.092 39.755,237.085 "/>
<polygon fill="#029548" points="39.755,237.085 39.75,237.092 -11.059,237.092 -11.062,237.085 14.33,193.343 14.34,193.343 "/>
<line fill="none" x1="293.779" y1="149.586" x2="268.392" y2="105.844"/>
<polygon fill="#221F1F" points="268.381,105.844 268.386,105.836 268.392,105.844 "/>
<polygon fill="#221F1F" points="192.145,62.092 192.15,62.086 192.155,62.092 "/>
<polygon fill="#3B5024" points="217.549,18.344 268.381,18.344 242.989,62.086 "/>
<polygon fill="#221F1F" points="268.381,18.344 268.386,18.336 268.392,18.344 "/>
<polygon fill="#221F1F" points="14.33,193.343 14.333,193.335 14.34,193.343 "/>
<polygon fill="#221F1F" points="293.775,62.092 293.781,62.086 293.785,62.092 "/>
<polygon fill="#93C94A" points="90.548,62.092 141.356,62.092 115.964,105.836 "/>
<polygon fill="#221F1F" points="14.329,18.344 14.333,18.336 14.34,18.344 "/>
<polygon fill="#639D42" points="65.148,18.336 65.144,18.344 14.34,18.344 14.333,18.336 39.75,-25.406 39.758,-25.406 "/>
<polygon fill="#76C044" points="39.755,62.086 39.75,62.092 -11.059,62.092 -11.062,62.086 14.329,18.344 14.34,18.344 "/>
<polygon fill="#221F1F" points="115.96,105.844 115.964,105.836 115.969,105.844 "/>
<polygon fill="#221F1F" points="-11.066,62.092 -11.062,62.086 -11.059,62.092 "/>
<polygon fill="#221F1F" points="242.984,149.593 242.989,149.586 242.996,149.593 "/>
<polygon fill="#036635" points="268.386,193.335 242.996,149.593 293.775,149.593 "/>
<polygon fill="#036635" points="192.15,149.586 166.758,105.844 217.54,105.844 "/>
<polygon fill="#639D42" points="242.996,-25.406 293.775,-25.406 268.386,18.336 "/>
<polygon fill="#221F1F" points="166.75,455.846 166.754,455.838 166.758,455.846 "/>
<line fill="none" x1="293.785" y1="62.092" x2="293.781" y2="62.086"/>
<polygon fill="#221F1F" points="242.986,499.594 242.989,499.589 242.996,499.594 "/>
<polygon fill="#221F1F" points="217.542,543.344 217.545,543.337 217.549,543.344 "/>
<polygon fill="#00AF8F" points="242.989,587.089 217.549,543.344 268.381,543.344 "/>
<polygon fill="#221F1F" points="141.356,499.594 141.36,499.587 141.364,499.594 "/>
<polygon fill="#221F1F" points="65.144,455.846 65.148,455.838 65.153,455.846 "/>
<polygon fill="#00AAA0" points="192.145,324.593 192.155,324.593 217.545,368.337 217.54,368.344 166.758,368.344 166.754,368.337 
	"/>
<polygon fill="#221F1F" points="166.758,368.344 166.75,368.344 166.754,368.337 "/>
<polygon fill="#221F1F" points="39.758,324.593 39.75,324.593 39.755,324.585 "/>
<polygon fill="#221F1F" points="90.548,324.593 90.542,324.593 90.545,324.585 "/>
<polygon fill="#00A774" points="65.144,280.844 65.153,280.844 90.545,324.585 90.542,324.593 39.758,324.593 39.755,324.585 "/>
<polygon fill="#00AAA0" points="115.96,280.844 115.969,280.844 141.36,324.585 141.356,324.593 90.548,324.593 90.545,324.585 "/>
<polygon fill="#00926C" points="141.356,237.092 141.366,237.092 166.754,280.836 166.75,280.844 115.969,280.844 115.964,280.836 
	"/>
<polygon fill="#221F1F" points="115.969,280.844 115.96,280.844 115.964,280.836 "/>
<polygon fill="#00A774" points="141.36,324.585 115.969,280.844 166.75,280.844 "/>
<polygon fill="#221F1F" points="65.153,280.844 65.144,280.844 65.149,280.836 "/>
<polygon fill="#00926C" points="90.542,237.092 90.548,237.092 115.964,280.836 115.96,280.844 65.153,280.844 65.149,280.836 "/>
<polygon fill="#006C4B" points="217.54,280.844 217.549,280.844 242.989,324.585 242.984,324.593 192.155,324.593 192.15,324.585 
	"/>
<polygon fill="#221F1F" points="192.155,324.593 192.145,324.593 192.15,324.585 "/>
<polygon fill="#009888" points="217.545,368.337 192.155,324.593 242.984,324.593 "/>
<polygon fill="#221F1F" points="217.54,368.344 217.545,368.337 217.549,368.344 "/>
<polygon fill="#00B4B2" points="166.754,368.337 141.364,324.593 192.145,324.593 "/>
<polygon fill="#221F1F" points="141.356,324.593 141.36,324.585 141.364,324.593 "/>
<polygon fill="#221F1F" points="192.145,412.094 192.15,412.085 192.155,412.094 "/>
<polygon fill="#221F1F" points="115.96,368.344 115.964,368.337 115.969,368.344 "/>
<polygon fill="#221F1F" points="14.34,280.844 14.329,280.844 14.333,280.836 "/>
<polygon fill="#75C699" points="39.75,237.092 39.758,237.092 65.149,280.836 65.144,280.844 14.34,280.844 14.333,280.836 "/>
</svg>
